<?xml version="1.0" encoding="UTF-8" standalone="no"?>
<!-- Created with Inkscape (http://www.inkscape.org/) -->

<svg
   width="210mm"
   height="297mm"
   viewBox="0 0 210 297"
   version="1.1"
   id="svg14242"
   sodipodi:docname="medaillon2.svg"
   inkscape:version="1.2.2 (732a01da63, 2022-12-09)"
   xmlns:inkscape="http://www.inkscape.org/namespaces/inkscape"
   xmlns:sodipodi="http://sodipodi.sourceforge.net/DTD/sodipodi-0.dtd"
   xmlns:xlink="http://www.w3.org/1999/xlink"
   xmlns="http://www.w3.org/2000/svg"
   xmlns:svg="http://www.w3.org/2000/svg">
  <sodipodi:namedview
     id="namedview14244"
     pagecolor="#505050"
     bordercolor="#eeeeee"
     borderopacity="1"
     inkscape:showpageshadow="0"
     inkscape:pageopacity="0"
     inkscape:pagecheckerboard="0"
     inkscape:deskcolor="#505050"
     inkscape:document-units="mm"
     showgrid="false"
     inkscape:zoom="0.2102413"
     inkscape:cx="225.93087"
     inkscape:cy="594.55492"
     inkscape:window-width="865"
     inkscape:window-height="665"
     inkscape:window-x="-32000"
     inkscape:window-y="-32000"
     inkscape:window-maximized="0"
     inkscape:current-layer="layer1" />
  <defs
     id="defs14239">
    <radialGradient
       inkscape:collect="always"
       xlink:href="#linearGradient1172"
       id="radialGradient1176"
       cx="210.49216"
       cy="294.01968"
       fx="210.49216"
       fy="294.01968"
       r="209.73608"
       gradientTransform="matrix(0.26458333,0,0,0.37148796,34.917459,10.33032)"
       gradientUnits="userSpaceOnUse" />
    <linearGradient
       inkscape:collect="always"
       id="linearGradient1172">
      <stop
         style="stop-color:#000000;stop-opacity:1;"
         offset="0"
         id="stop1168" />
      <stop
         style="stop-color:#000000;stop-opacity:0;"
         offset="1"
         id="stop1170" />
    </linearGradient>
    <filter
       inkscape:label="Tinfoil"
       inkscape:menu-tooltip="Metallic foil effect combining two lighting types and variable crumple"
       inkscape:menu="Bumps"
       height="1.0171264"
       width="1.0243922"
       x="-0.0121961"
       y="-0.0085632186"
       style="color-interpolation-filters:sRGB;"
       id="filter21709">
      <feGaussianBlur
         in="SourceGraphic"
         result="result14"
         stdDeviation="0.5"
         id="feGaussianBlur21683" />
      <feTurbulence
         type="fractalNoise"
         seed="25"
         baseFrequency="0.004 0.008"
         numOctaves="1"
         result="result5"
         id="feTurbulence21685" />
      <feDisplacementMap
         scale="100"
         xChannelSelector="R"
         in="result5"
         result="result8"
         yChannelSelector="B"
         in2="result14"
         id="feDisplacementMap21687" />
      <feGaussianBlur
         stdDeviation="0.5"
         result="result17"
         id="feGaussianBlur21689" />
      <feSpecularLighting
         specularExponent="40"
         specularConstant="1"
         surfaceScale="12"
         result="result2"
         lighting-color="rgb(254,218,71)"
         in="result17"
         id="feSpecularLighting21693">
        <feDistantLight
           elevation="70"
           azimuth="225"
           id="feDistantLight21691" />
      </feSpecularLighting>
      <feDiffuseLighting
         diffuseConstant="0.5"
         surfaceScale="50"
         in="result17"
         lighting-color="rgb(116,245,254)"
         id="feDiffuseLighting21697">
        <feDistantLight
           elevation="55"
           azimuth="225"
           id="feDistantLight21695" />
      </feDiffuseLighting>
      <feBlend
         in2="SourceGraphic"
         result="result9"
         mode="screen"
         id="feBlend21699" />
      <feComposite
         k3="1"
         k2="1"
         in="result2"
         result="result11"
         in2="result9"
         operator="arithmetic"
         id="feComposite21701" />
      <feComposite
         in2="SourceGraphic"
         operator="in"
         result="result16"
         id="feComposite21703" />
      <feBlend
         mode="multiply"
         in2="result16"
         id="feBlend21705" />
      <feDisplacementMap
         in2="result5"
         xChannelSelector="R"
         scale="0"
         id="feDisplacementMap21707" />
    </filter>
  </defs>
  <g
     inkscape:label="Calque 1"
     inkscape:groupmode="layer"
     id="layer1">
    <rect
       style="opacity:1;fill:#cccccc;fill-opacity:0.861386;stroke:#f2f2f2;stroke-width:0.264999;filter:url(#filter21709)"
       id="rect14778"
       width="207.6483"
       height="295.74155"
       x="3.7754235"
       y="2.5169489" />
    <path
       style="fill:#f6d171;fill-opacity:1;stroke:url(#radialGradient1176);stroke-width:0.352777;stroke-opacity:1;image-rendering:auto"
       d="m 40.306159,196.99485 c -2.95072,-0.70106 -4.77585,-3.1708 -4.97726,-6.73514 -0.1105,-1.95568 0.01,-2.68376 0.65875,-3.98291 1.25321,-2.50931 3.56954,-4.88619 7.11601,-7.30201 4.53719,-3.0907 6.40299,-4.71293 7.84183,-6.81814 2.16593,-3.16903 3.1406,-9.27836 1.61086,-10.09705 -0.38806,-0.20768 -0.70556,-0.55795 -0.70556,-0.77838 0,-0.22043 -0.23685,-0.6625 -0.52633,-0.98238 -1.226,-1.35472 1.67501,-2.46531 6.45336,-2.47053 1.79978,-0.002 1.8893,-0.048 2.38125,-1.22543 0.75438,-1.80547 0.64486,-2.8412 -0.37078,-3.50667 -0.48507,-0.31783 -0.86941,-0.85203 -0.85409,-1.1871 0.0174,-0.38024 0.0957,-0.44069 0.20826,-0.16084 0.0992,0.24662 0.64232,0.68726 1.20687,0.9792 1.54214,0.79747 1.28799,-0.0128 -0.58237,-1.85671 -1.8864,-1.85971 -1.83856,-2.43062 0.0717,-0.856 0.72678,0.59908 1.39037,1.02027 1.47464,0.936 0.0843,-0.0843 -0.33578,-0.91527 -0.93345,-1.84666 -1.68083,-2.61935 -2.24738,-4.26684 -2.52043,-7.32922 -0.1384,-1.55222 -0.37333,-3.10004 -0.52206,-3.43958 -0.53292,-1.21667 0.50786,-0.60772 1.41361,0.82708 1.11681,1.76914 1.53996,1.61832 0.48346,-0.17231 -0.84027,-1.42414 -0.8,-2.16425 0.27505,-5.05528 0.48305,-1.29903 0.79571,-1.73242 1.05951,-1.46862 0.2638,0.26379 0.33097,-0.0773 0.22759,-1.15575 -0.17896,-1.86717 1.01592,-4.87058 1.4508,-3.64665 0.40163,1.13034 1.00169,2.30122 1.11916,2.18376 0.0595,-0.0595 -0.0675,-1.05329 -0.28234,-2.20836 -0.38915,-2.09258 -0.38527,-2.11028 1.07851,-4.91832 1.18296,-2.26932 1.44414,-2.59305 1.34105,-1.66217 -0.0704,0.63582 0.0143,1.10858 0.18825,1.0506 0.17395,-0.058 0.35626,-1.0838 0.40514,-2.27959 0.0736,-1.80019 0.3123,-2.53615 1.38791,-4.27877 0.71447,-1.15753 1.29904,-2.32092 1.29904,-2.58531 0,-0.83059 2.39898,-4.08558 3.90041,-5.29216 0.85529,-0.68733 1.7353,-1.84532 2.16965,-2.85499 0.40191,-0.93426 1.07885,-1.97247 1.50432,-2.30714 0.42546,-0.33467 0.88933,-1.08291 1.03081,-1.66275 0.14147,-0.57983 1.23779,-2.548096 2.43625,-4.373906 l 2.17903,-3.31966 0.23958,1.37939 c 0.31269,1.80041 1.04516,3.61065 1.24466,3.0761 0.0862,-0.23097 -0.0112,-1.02472 -0.21647,-1.76389 -0.62701,-2.25794 -0.45551,-3.2593 0.86665,-5.06045 1.35552,-1.84659 3.49702,-3.868211 4.09758,-3.868211 0.20786,0 0.69943,-0.40874 1.09239,-0.90829 0.39295,-0.49956 1.07066,-1.04372 1.50603,-1.20925 0.59858,-0.22758 0.75162,-0.50989 0.62773,-1.15796 -0.27291,-1.42764 1.43711,-4.08245 5.1616,-8.01339 l 3.509621,-3.70417 -0.193021,1.45357 c -0.1181,0.88943 -0.0404,1.54785 0.200081,1.69651 0.26788,0.16556 0.3931,-0.2911 0.3931,-1.4336 0,-1.57324 0.12198,-1.7947 1.97961,-3.59396 1.21434,-1.17618 2.07209,-1.76779 2.21882,-1.53038 0.14269,0.23089 0.4989,-0.071 0.88292,-0.74839 0.35405,-0.62448 1.90964,-2.22805 3.45687,-3.56349 l 2.81313,-2.42807 -0.25311,2.02585 c -0.13921,1.11421 -0.61293,3.00059 -1.0527,4.19196 -0.43977,1.19136 -0.91508,2.48361 -1.05625,2.87167 l -0.25667,0.70555 0.52714,-0.70555 c 0.82994,-1.11088 2.26602,-5.44648 2.53559,-7.65512 0.31732,-2.59979 1.29824,-3.98628 3.78886,-5.35536 1.10124,-0.60535 2.51938,-1.48934 3.15142,-1.96442 1.02057,-0.76713 1.11967,-0.78695 0.88568,-0.17718 -0.14491,0.37764 -0.43168,1.48072 -0.63725,2.45129 -0.20557,0.97057 -0.68341,2.37658 -1.06185,3.12447 -0.37844,0.74789 -0.51536,1.25305 -0.30427,1.12259 0.55282,-0.34165 1.65481,-2.62855 1.96118,-4.06988 0.61841,-2.9094 1.24299,-3.83184 3.70088,-5.46584 1.3152,-0.87435 2.49221,-1.58972 2.61558,-1.58972 0.12337,0 -0.10749,0.65038 -0.51303,1.4453 -0.40553,0.79491 -0.66805,1.51457 -0.58337,1.59925 0.0847,0.0847 0.61168,-0.76249 1.17113,-1.88259 0.87727,-1.75642 1.40345,-2.2897 3.82536,-3.87696 1.54449,-1.01223 2.86589,-1.7827 2.93643,-1.71216 0.0705,0.0705 -0.10147,0.57957 -0.38223,1.13118 -1.02328,2.01037 -0.97324,2.71758 0.0673,0.95103 1.40012,-2.37704 2.2768,-3.02152 5.88722,-4.32792 3.37437,-1.22099 4.47094,-1.38744 2.61784,-0.39737 -0.6791,0.36282 -1.79035,1.25245 -2.46945,1.97695 -1.19347,1.27328 -1.1554,1.25956 1.13976,-0.41069 4.67601,-3.40283 5.63709,-4.06452 5.74506,-3.95536 0.2662,0.26916 -0.50166,3.22737 -0.95555,3.68126 -0.27655,0.27656 -1.08878,0.52486 -1.80493,0.55178 -0.71617,0.0269 -1.30211,0.18198 -1.30211,0.34457 0,0.42509 2.03447,0.36443 2.87562,-0.0857 1.0325,-0.55258 1.08629,-0.26142 0.16512,0.89384 -0.66571,0.83487 -1.33309,1.12552 -3.77675,1.64479 l -2.96816,0.63072 2.11667,-0.0924 c 1.16416,-0.0508 2.43416,-0.21514 2.82222,-0.36519 0.60506,-0.23396 0.58693,-0.16812 -0.12728,0.46227 -0.73259,0.64661 -0.75479,0.73509 -0.18441,0.73509 0.56585,0 0.53528,0.11315 -0.24002,0.88845 -0.9026,0.9026 -3.39931,1.52466 -6.50385,1.62044 l -1.41111,0.0435 1.76006,0.2941 c 1.00768,0.16839 2.36489,0.15434 3.175,-0.0329 2.17611,-0.50288 2.19757,-0.45281 0.533,1.24327 -0.85691,0.87313 -1.74741,1.5875 -1.97889,1.5875 -0.23148,0 -0.75329,0.56341 -1.15957,1.25202 -0.74448,1.2618 -2.50323,2.27576 -3.94739,2.27576 -0.41718,0 -1.27091,0.43656 -1.89716,0.97014 -0.62626,0.53357 -1.44097,1.17145 -1.81047,1.4175 -0.56964,0.37933 -0.31141,0.43055 1.69805,0.33678 1.91748,-0.0895 2.54038,-0.27078 3.26319,-0.94983 0.49134,-0.46158 0.89335,-0.71355 0.89335,-0.55992 0,0.15363 -1.08613,1.37192 -2.41361,2.70732 -2.26435,2.27785 -2.51083,2.42801 -3.9857,2.42801 -0.86465,0 -2.91384,-0.47312 -4.55375,-1.05137 -1.63992,-0.57826 -3.45791,-1.03712 -4.04,-1.01969 -0.90404,0.0271 -0.84647,0.0737 0.39492,0.31956 0.79928,0.15833 2.70428,0.9191 4.23333,1.6906 1.52905,0.7715 3.43082,1.5076 4.22616,1.63577 1.24016,0.19986 1.60436,0.0999 2.55764,-0.70227 1.36813,-1.15121 1.46864,-0.55337 0.14143,0.84119 -1.40702,1.4784 -5.52559,2.66884 -8.35113,2.41383 -2.02934,-0.18316 -2.08741,-0.16749 -1.08568,0.29297 1.42174,0.65352 3.50414,0.63985 4.80244,-0.0315 l 1.06323,-0.54982 -0.81617,1.46481 c -1.28637,2.30871 -2.03007,2.63544 -5.96433,2.62034 l -3.41198,-0.0131 1.45785,0.65589 c 1.47343,0.6629 3.90231,0.7019 5.29125,0.0849 0.5675,-0.25208 0.60786,-0.19984 0.29231,0.3784 -0.20135,0.36896 -0.92158,1.27235 -1.60052,2.00752 -1.01563,1.09974 -1.39573,1.29619 -2.1444,1.10828 -1.26933,-0.31858 -1.13659,0.18917 0.45601,1.7443 2.47568,2.41744 5.36207,2.01261 6.03451,-0.84635 l 0.28841,-1.22623 0.0361,1.16256 c 0.0437,1.40552 -1.20311,2.80709 -2.77709,3.12188 -1.27776,0.25555 -1.29793,0.3452 -0.2736,1.21659 l 0.79375,0.67524 -1.04856,0.8682 c -1.07936,0.89371 -3.56113,1.59858 -5.62839,1.59858 -0.64954,0 -1.38502,0.25406 -1.64608,0.56863 -0.25956,0.31275 -0.79493,0.699561 -1.18972,0.859581 -0.5353,0.21698 -0.30384,0.29664 0.91031,0.31332 1.11975,0.0154 1.90819,-0.19795 2.52509,-0.683201 0.96548,-0.75945 1.86179,-0.95234 1.46853,-0.31604 -0.35771,0.578801 -3.0202,1.710511 -4.04509,1.719411 -0.66476,0.006 -0.99491,0.27828 -1.29261,1.06696 -0.36274,0.96101 -0.32902,1.07338 0.36363,1.21187 3.36113,0.67206 5.66557,0.35306 6.72363,-0.93076 0.36768,-0.44614 0.5958,-0.58269 0.50692,-0.30346 -0.43617,1.37038 -3.66631,2.49091 -7.18049,2.49091 -0.82446,0 -1.91677,0.21673 -2.42735,0.48162 l -0.92833,0.48163 1.68175,0.48851 c 3.95729,1.14951 7.61511,0.32008 9.42863,-2.13801 1.3025,-1.76545 1.09971,-0.75374 -0.25034,1.24896 -1.63786,2.42963 -3.61531,3.36768 -7.00104,3.32111 -3.86436,-0.0532 -3.32844,0.0975 -9.53573,-2.68005 -1.47962,-0.66207 -2.81516,-1.20377 -2.96784,-1.20377 -0.44568,0 3.39646,2.65197 5.08154,3.50744 0.96552,0.49017 1.85395,0.70313 2.38125,0.57078 1.08624,-0.27263 1.06463,0.18813 -0.0722,1.53916 -0.65417,0.77743 -1.22021,1.0854 -1.99496,1.0854 -1.0593,0 -1.06845,0.0146 -0.44313,0.70556 0.39954,0.441476 1.08655,0.705546 1.8356,0.705546 1.01571,0 1.27067,-0.1737 1.68284,-1.146526 0.40765,-0.96215 0.52555,-1.04436 0.73316,-0.51121 0.31102,0.79872 -0.94538,2.210676 -2.25658,2.535986 -0.51518,0.12781 -1.25418,0.51621 -1.64224,0.8631 -1.04987,0.93849 -2.07483,1.06796 -4.32106,0.54581 -1.11272,-0.25866 -2.07247,-0.42095 -2.13278,-0.36063 -0.0603,0.0603 0.48691,0.47836 1.21604,0.92899 1.35016,0.83444 3.30141,1.06116 4.47398,0.51984 0.53721,-0.248 0.46362,0.065 -0.43273,1.84069 -0.61614,1.22057 -1.3866,2.23681 -1.79382,2.36606 -1.08251,0.34357 -0.86653,0.98797 0.68762,2.05153 1.86209,1.27431 3.8748,0.31319 3.90098,-1.86283 0.009,-0.77143 0.0589,-0.80904 0.36769,-0.27896 0.44167,0.75809 -0.007,1.68978 -1.30571,2.71135 -1.42358,1.11979 -3.64485,0.9614 -6.98862,-0.49831 -1.54035,-0.67243 -2.84654,-1.1767 -2.90265,-1.12059 -0.27929,0.27928 3.43503,2.71455 4.24217,2.78135 1.08615,0.0899 1.12746,0.28574 0.36951,1.75146 -0.70999,1.37296 -0.21213,1.81153 1.7338,1.52733 1.8774,-0.27418 2.90928,-1.04873 3.55836,-2.67097 0.6625,-1.65573 0.91472,-1.75468 0.91472,-0.35887 0,0.58223 -0.37974,1.48256 -0.87211,2.06771 -0.47966,0.57004 -0.7843,1.12425 -0.67697,1.23157 0.3874,0.3874 -0.56361,1.57943 -1.60385,2.01031 -0.9244,0.3829 -1.01313,0.53401 -0.67954,1.15733 0.35649,0.66611 0.61233,0.70191 3.60952,0.50503 3.53516,-0.23222 7.62425,-1.32377 8.38277,-2.23772 0.27423,-0.33044 0.48324,-1.38571 0.48324,-2.43991 0,-2.20251 -0.90792,-3.42502 -2.94715,-3.96832 -1.034,-0.27549 -1.11326,-0.34957 -0.40424,-0.37782 2.03116,-0.0809 3.90245,1.8967 4.42368,4.67507 l 0.25084,1.33709 1.22061,-1.17289 c 1.53751,-1.47738 2.14721,-2.6396 2.57891,-4.91594 0.55036,-2.90206 -0.7641,-4.93438 -3.63219,-5.61581 l -1.13769,-0.2703 1.3281,-0.0361 c 1.04912,-0.0285 1.6049,0.21774 2.64584,1.17235 1.29414,1.18684 1.31773,1.25519 1.31773,3.81828 0,2.96842 -0.58281,4.14124 -3.62173,7.28812 -0.91847,0.95111 -2.06681,2.16706 -2.55188,2.70213 -1.6488,1.81873 -4.22714,2.68971 -8.57193,2.89565 -3.63372,0.17223 -4.01072,0.25951 -5.42405,1.25571 -1.22804,0.86561 -2.00936,1.11287 -4.08021,1.29125 -2.386891,0.20561 -2.493681,0.2492 -1.568211,0.64024 1.231231,0.52022 3.211861,0.54152 4.233561,0.0455 0.61103,-0.29663 0.56564,-0.18707 -0.21925,0.52916 -1.153,1.05215 -2.98513,1.1963 -4.921551,0.38721 -1.15356,-0.48199 -1.27856,-0.46786 -1.89516,0.21408 -0.36308,0.40156 -1.37452,1.11891 -2.24765,1.59411 -1.44487,0.78638 -1.34638,0.8709 0.26192,0.22477 0.62271,-0.25017 -0.59573,1.46213 -2.4876,3.49588 -0.94028,1.01081 -2.3654,1.54613 -3.23137,1.21383 -0.75284,-0.28889 -1.45573,0.56978 -2.13125,2.60359 -1.05551,3.17784 -3.00578,6.00412 -4.65769,6.74982 -0.15269,0.0689 -0.75387,0.67218 -1.33595,1.34057 l -1.05833,1.21524 1.23472,-0.89085 c 0.67909,-0.48996 1.41843,-0.99892 1.64297,-1.13102 0.22454,-0.1321 -0.14609,0.88505 -0.82362,2.26034 -1.33293,2.70565 -2.41952,3.49789 -4.79754,3.49789 -1.47795,0 -2.79665,0.88158 -2.0515,1.37147 0.76556,0.50331 -1.3944,3.05904 -2.82758,3.34567 -1.73842,0.34769 -4.07684,0.26069 -5.06235,-0.18834 -0.49502,-0.22554 -1.0171,-0.29301 -1.16018,-0.14993 -0.26852,0.26852 0.0567,0.51426 2.5213,1.90533 1.24378,0.70201 1.30442,0.78592 0.43362,0.60004 -0.55681,-0.11886 -1.6203,-0.70465 -2.36332,-1.30175 -0.74301,-0.5971 -1.57845,-0.99833 -1.85653,-0.89162 -0.47258,0.18135 -1.99972,4.06007 -1.99972,5.07902 0,0.25336 0.22679,0.46066 0.50397,0.46066 0.27718,0 0.74154,0.23757 1.03191,0.52794 0.46873,0.46873 0.46866,0.64676 -5.3e-4,1.5875 -0.29072,0.58276 -0.6757,1.05956 -0.85552,1.05956 -0.49237,0 -0.38215,4.48103 0.1677,6.81799 0.88563,3.7641 2.5501,5.65877 9.58275,10.90809 5.66974,4.23201 7.16137,6.12972 7.48966,9.52857 0.24016,2.48653 -0.5211,4.72154 -2.19535,6.44534 l -1.43698,1.47951 -13.3751,0.22553 c -16.09739,0.27143 -21.88001,0.24251 -23.39315,-0.117 z m 36.69302,-2.74764 c 1.49291,-1.35106 2.22061,-4.01022 1.66356,-6.07897 -0.42025,-1.56067 -2.36391,-4.2072 -3.7632,-5.12405 -0.87569,-0.57378 -0.81988,-0.43922 0.45068,1.08652 2.04862,2.46007 2.70692,3.91308 2.70692,5.97472 0,2.48741 -0.80106,3.86461 -2.65101,4.55771 -1.42021,0.53208 -1.43715,0.55393 -0.29515,0.38046 0.66636,-0.10123 1.51605,-0.4596 1.8882,-0.79639 z m -37.49561,0.32262 c 0,-0.16395 -0.31817,-0.58604 -0.70704,-0.93797 -1.52196,-1.37735 -1.78017,-5.49005 -0.50262,-8.00538 0.32558,-0.64102 1.15502,-1.87987 1.8432,-2.75299 l 1.25124,-1.5875 -1.49377,1.41111 c -1.97633,1.86697 -2.79049,3.23892 -3.19837,5.38969 -0.39302,2.07239 -0.0798,3.46935 1.21726,5.42938 0.8289,1.25255 1.5901,1.75695 1.5901,1.05366 z m 31.38647,-4.58082 c 0.51003,-1.83632 0.44969,-2.77364 -0.19449,-3.02083 -1.26952,-0.48716 -1.38226,-0.25862 -1.38226,2.80224 0,2.91142 0.0212,2.99024 0.60858,2.26483 0.33471,-0.41336 0.77039,-1.33416 0.96817,-2.04624 z m -1.87791,-1.08036 c -0.1731,-1.7572 -0.67551,-2.88302 -1.09804,-2.4605 -0.0969,0.0969 -0.0202,0.7203 0.17051,1.38527 0.19071,0.66496 0.35681,2.00382 0.36911,2.97524 0.0197,1.555 0.0656,1.66075 0.38409,0.88427 0.19895,-0.48507 0.2774,-1.73799 0.17433,-2.78428 z m 5.41104,0.8734 c 0.007,-0.90256 -0.1947,-0.62098 -0.48485,0.67616 -0.17289,0.77291 -0.14016,0.91562 0.12135,0.52917 0.19696,-0.29104 0.36053,-0.83344 0.3635,-1.20533 z m -28.58946,-1.26412 c 0.15136,0 0.38072,-1.02988 0.50968,-2.28862 0.12896,-1.25874 0.32662,-2.52874 0.43924,-2.82222 0.1508,-0.39298 -0.0399,-0.5336 -0.72366,-0.5336 -1.04209,0 -1.50428,0.84663 -1.85364,3.39546 -0.25233,1.84097 0.0429,2.75177 0.79812,2.46197 0.30528,-0.11714 0.67889,-0.21299 0.83026,-0.21299 z m 3.54764,-1.00909 c 0,-0.555 0.0979,-1.72357 0.21762,-2.59683 0.20529,-1.49771 0.16621,-1.59756 -0.68919,-1.76107 -0.759,-0.1451 -0.96698,-8e-4 -1.27595,0.88557 -0.20303,0.58241 -0.36915,1.82899 -0.36915,2.77018 0,1.6662 0.0279,1.71124 1.05834,1.71124 0.92926,0 1.05833,-0.12306 1.05833,-1.00909 z m 21.67231,-2.48491 c -0.18109,-0.16899 -0.70522,-0.42113 -1.16474,-0.56031 -0.61421,-0.18604 -0.79415,-0.12904 -0.6794,0.2152 0.0858,0.25755 0.54119,0.56584 1.01187,0.68511 0.97597,0.24729 1.31376,0.1093 0.83227,-0.34 z m -2.97509,-0.38655 c 0,-0.19403 -0.15875,-0.35278 -0.35278,-0.35278 -0.19402,0 -0.35277,0.15875 -0.35277,0.35278 0,0.19403 0.15875,0.35278 0.35277,0.35278 0.19403,0 0.35278,-0.15875 0.35278,-0.35278 z m 2.46854,-2.64823 c -0.7301,-1.92029 -1.51665,-3.09104 -3.72102,-5.53855 -3.3401,-3.70853 -4.12538,-5.5585 -4.36997,-10.29496 -0.18192,-3.52256 -0.26162,-3.86474 -0.96019,-4.12195 -0.71116,-0.26185 -0.77765,-0.14396 -1.00022,1.77377 -0.27627,2.38035 0.31665,6.85365 1.22648,9.25332 0.60497,1.59557 4.9005,9.45993 5.16705,9.45993 0.47533,0 -0.14343,-1.37718 -1.99062,-4.43053 -2.75885,-4.56028 -3.54849,-7.07449 -3.70516,-11.79725 l -0.12288,-3.70416 0.2977,3.35139 c 0.40351,4.54252 1.32642,7.23165 4.05597,11.81805 1.27021,2.13431 2.39776,4.15837 2.50567,4.49792 0.14275,0.44917 0.57177,0.61736 1.5748,0.61736 1.32574,0 1.36572,-0.0339 1.04239,-0.88434 z m -21.73504,-2.42814 c 0.66896,-1.04575 1.38821,-2.00762 1.59834,-2.13749 0.66725,-0.41238 0.41261,-0.90003 -0.46999,-0.90003 -0.63095,0 -1.27174,0.55832 -2.46945,2.15162 -0.88957,1.18339 -1.6174,2.29464 -1.6174,2.46944 0,0.17481 0.392,0.31783 0.8711,0.31783 0.6681,0 1.15457,-0.44312 2.0874,-1.90137 z m 3.06941,-0.0804 c 1.15361,-1.56159 1.36168,-2.04772 0.98126,-2.29262 -0.26553,-0.17094 -0.71585,-0.27011 -1.00071,-0.22038 -0.50619,0.0884 -3.18624,3.62305 -3.18624,4.20228 0,0.16089 0.39187,0.29253 0.87082,0.29253 0.64882,0 1.24404,-0.50522 2.33487,-1.98181 z m 9.66053,-1.17673 c 0.27204,-0.44017 -2.37868,-1.14628 -3.78048,-1.00705 -0.60165,0.0597 -1.15643,0.29923 -1.23285,0.53217 -0.0955,0.29127 0.55697,0.46283 2.0895,0.54939 1.22565,0.0692 2.33814,0.15645 2.47221,0.19383 0.13407,0.0374 0.3373,-0.0834 0.45162,-0.26834 z m -8.32619,-4.1616 c 0.92304,-1.81223 1.80997,-4.91207 1.80997,-6.32583 0,-1.9435 -0.53701,-1.31804 -0.95288,1.10983 -0.21485,1.25429 -0.86943,3.23867 -1.45461,4.40972 -0.77625,1.55341 -0.93042,2.1292 -0.57013,2.1292 0.27161,0 0.79705,-0.59532 1.16765,-1.32292 z m 0.0461,-12.99336 c 0,-0.48528 0.57598,-0.5427 4.42327,-0.44097 3.44831,0.0912 4.49479,0.23295 4.74781,0.64319 0.25309,0.41036 0.41809,0.43267 0.74946,0.1013 0.74441,-0.74441 -1.3506,-1.22971 -5.51081,-1.27657 -3.8131,-0.0429 -5.77218,0.40073 -5.28073,1.19591 0.32724,0.52949 0.871,0.39036 0.871,-0.22286 z m -1.05833,-1.75593 c 0,-0.3025 -0.15875,-0.45188 -0.35278,-0.33196 -0.19402,0.11992 -0.35277,0.36741 -0.35277,0.54999 0,0.18257 0.15875,0.33195 0.35277,0.33195 0.19403,0 0.35278,-0.24749 0.35278,-0.54998 z m 9.05769,-0.74047 c -0.12767,-0.12767 -0.096,-0.40549 0.0704,-0.61737 0.16637,-0.21188 0.89924,-2.21086 1.62859,-4.44217 1.61045,-4.92687 4.12179,-11.31635 6.86351,-17.4625 2.18156,-4.89044 2.80846,-6.5896 2.21265,-5.99723 -0.19515,0.19403 -0.99479,1.8609 -1.77696,3.70417 -0.78217,1.84326 -2.39545,5.57389 -3.58507,8.29028 -2.44166,5.57532 -5.65133,14.29408 -5.65133,15.35127 0,0.47162 -0.23707,0.70012 -0.72638,0.70012 -0.39951,0 -0.62826,0.15875 -0.50835,0.35277 0.11992,0.19403 0.55262,0.35278 0.96156,0.35278 0.40895,0 0.63908,-0.10446 0.51141,-0.23212 z m 7.83768,-8.01521 c 1.11341,0.16427 1.47989,0.11593 1.3021,-0.17175 -0.25908,-0.41919 -3.62359,-0.5558 -4.58667,-0.18623 -1.05439,0.40461 -0.55752,0.7948 0.58851,0.46216 0.63059,-0.18304 1.84382,-0.22992 2.69606,-0.10418 z m 1.35901,-2.40124 c -2.27272,-0.21166 -3.65047,-0.19875 -4.05694,0.038 -0.44015,0.2564 0.54025,0.34771 3.44145,0.32052 l 4.05694,-0.038 z m -6.834,-6.02018 c -0.27996,-1.82805 -1.09838,-3.53774 -1.55763,-3.25391 -0.54595,0.33742 -0.39178,1.44813 0.4381,3.15628 0.97372,2.00419 1.41745,2.04289 1.11953,0.0976 z m 11.24898,0.74474 c 1.09458,-0.5858 0.29992,-1.00932 -1.89381,-1.00932 -1.33793,0 -2.52762,0.22479 -3.24237,0.61264 l -1.12901,0.61264 1.5875,0.2266 c 1.77477,0.25334 3.72155,0.0692 4.67769,-0.44256 z m 3.24217,-0.32873 c 0.20835,-0.2038 -0.009,-0.32781 -0.57417,-0.32781 -0.50011,0 -1.12718,0.26445 -1.39347,0.58768 -0.43855,0.53231 -0.38444,0.5632 0.57417,0.32781 0.58208,-0.14292 1.20914,-0.40738 1.39347,-0.58768 z m -16.39968,-4.01613 c 0.34383,-0.41429 0.23306,-0.76633 -0.57417,-1.82484 -1.1426,-1.49826 -1.51651,-0.99554 -0.82285,1.10629 0.44415,1.34577 0.74713,1.50161 1.39702,0.71855 z m 3.89371,-1.98379 c 0,-0.20925 -0.6578,-1.0317 -1.46178,-1.82768 -1.73612,-1.71886 -1.68971,-1.12474 0.0619,0.79225 1.41323,1.54667 1.3999,1.5368 1.3999,1.03543 z m 20.15863,-0.8803 c 1.60718,-0.8311 0.98966,-0.97341 -0.79263,-0.18267 -0.8529,0.37841 -1.26503,0.69923 -0.91585,0.71293 0.34919,0.0137 1.118,-0.22491 1.70848,-0.53026 z m -1.99058,-2.95236 c 1.00538,-0.20795 -0.12975,-0.30354 -3.94793,-0.33244 -3.23748,-0.0245 -5.44536,0.0991 -5.57707,0.31221 -0.26729,0.43248 7.45267,0.44888 9.525,0.0202 z m -16.58947,-4.48395 c -0.48507,-1.09684 -0.97961,-2.60497 -1.09897,-3.35139 -0.22519,-1.40825 -0.83239,-1.88631 -0.83239,-0.65535 0,1.32176 2.06595,6.00101 2.64952,6.00101 0.0901,0 -0.23308,-0.89742 -0.71816,-1.99427 z m 15.55315,0.75612 c 2.60429,0.36058 4.82903,0.56165 4.94387,0.44681 0.11484,-0.11484 -0.71738,-0.31708 -1.84937,-0.44942 -1.132,-0.13235 -2.69318,-0.37968 -3.46929,-0.54964 -2.17062,-0.47534 -5.70823,-0.38278 -7.06689,0.1849 -1.81936,0.76018 -1.48242,0.8777 0.74161,0.25867 1.80861,-0.5034 2.34186,-0.49475 6.70007,0.10868 z m 10.00276,-3.12341 c -0.0808,-0.0705 -1.41699,-0.21322 -2.96922,-0.31708 -1.63239,-0.10923 -2.52476,-0.0656 -2.11666,0.10344 0.67622,0.28013 5.38902,0.47809 5.08588,0.21364 z m -20.54072,-1.19469 c -0.62143,-2.45067 -1.85637,-6.08541 -2.06758,-6.08541 -0.14089,0 -0.11796,0.43656 0.051,0.97013 1.44018,4.54953 1.85331,5.73264 2.00178,5.73264 0.0943,0 0.10096,-0.27781 0.0148,-0.61736 z m 12.98539,-0.11797 c -2.40504,-0.95762 -5.0121,-1.43266 -6.41658,-1.16918 -1.73521,0.32553 -1.4141,0.68476 0.50734,0.56758 0.92175,-0.0562 2.78716,0.20008 4.14535,0.56956 3.25852,0.88642 3.94079,0.89882 1.76389,0.032 z m 18.131231,-2.04911 c 1.41591,-0.75434 1.14322,-1.0039 -1.41472,-1.29473 -1.68669,-0.19178 -1.950651,-0.13178 -2.352771,0.53482 -0.2491,0.41296 -0.35879,0.90312 -0.24376,1.08926 0.34161,0.55272 2.722541,0.35723 4.011251,-0.32935 z m -5.829901,-1.12634 c 0.75086,-0.20849 1.22711,-0.50205 1.05833,-0.65237 -0.16878,-0.15031 -2.41178,-0.72192 -4.98443,-1.27025 -4.49058,-0.95711 -4.72686,-0.97345 -5.91118,-0.40868 -0.96512,0.46023 -1.79448,0.54086 -3.81039,0.37046 -2.1554,-0.1822 -2.84731,-0.0981 -4.23118,0.51401 -0.90993,0.40251 -1.65442,0.82421 -1.65442,0.93711 0,0.11291 0.51594,-0.0738 1.14653,-0.41484 0.85054,-0.46004 2.01169,-0.62736 4.49791,-0.64815 1.84327,-0.0154 3.75234,-0.19922 4.2424,-0.40845 0.98848,-0.42204 2.99659,0.18558 5.2826,1.59842 1.38048,0.85319 2.36008,0.93911 4.36383,0.38274 z m 17.126381,-1.58127 c 1.0245,-0.30425 1.80119,-0.61469 1.726,-0.68989 -0.18224,-0.18224 -8.81163,0.832 -9.04242,1.06278 -0.43601,0.43602 5.63436,0.12663 7.31642,-0.37289 z m -8.08465,-1.51841 c 0,-0.49001 -0.34145,-0.71568 -1.32292,-0.87435 -0.7276,-0.11763 -1.91993,-0.62104 -2.6496,-1.1187 -1.0555,-0.71986 -1.57655,-0.85794 -2.54907,-0.6755 -1.073591,0.2014 -5.782001,-0.2378 -8.294361,-0.7737 -0.48467,-0.10338 -0.78997,-0.0967 -0.67845,0.0148 0.3118,0.31179 9.736051,3.03248 12.319401,3.55648 3.10059,0.62893 3.175,0.6259 3.175,-0.12904 z m -36.996821,-2.31158 c -0.45345,-1.19457 -0.70869,-1.52605 -0.86382,-1.12181 -0.35688,0.93003 0.13819,2.74872 0.69055,2.53676 0.26466,-0.10156 0.4812,-0.004 0.4812,0.21585 0,0.22028 0.0755,0.32497 0.16785,0.23265 0.0923,-0.0923 -0.12178,-0.93087 -0.47578,-1.86345 z m 38.619201,0.28601 c 1.20365,-0.57117 1.76202,-1.52266 0.58248,-0.99256 -0.33955,0.15259 -1.64924,0.37663 -2.91042,0.49787 -2.07098,0.19908 -2.20764,0.25911 -1.41111,0.61988 1.25267,0.56736 2.35756,0.53037 3.73905,-0.12519 z M 79.230359,109.188 c -0.12541,-0.94537 -0.54514,-2.57256 -0.93274,-3.61597 l -0.70473,-1.89711 0.18367,1.739 c 0.18328,1.73532 1.2261,5.49294 1.5244,5.49294 0.0866,0 0.0548,-0.77348 -0.0706,-1.71886 z m -5.8849,-1.21237 c 0.0136,-0.15698 -0.13395,-0.18729 -0.32798,-0.0674 -0.19403,0.11992 -0.34162,0.56585 -0.32798,0.99096 0.0239,0.7452 0.0357,0.74762 0.32798,0.0674 0.16675,-0.38806 0.31435,-0.83399 0.32798,-0.99096 z m 16.21487,-2.22342 c 0.27031,-0.0845 0.40483,-0.24026 0.29893,-0.34616 -0.26443,-0.26443 -3.08345,0.6061 -3.08345,0.95219 0,0.15322 0.51594,0.11412 1.14653,-0.0869 0.63059,-0.20102 1.36769,-0.43462 1.63799,-0.51912 z m 5.63158,-2.06906 c -0.0925,-0.0925 -1.31804,-0.33124 -2.72346,-0.53056 -2.08873,-0.29624 -2.72901,-0.26774 -3.50661,0.15607 -0.90362,0.49249 -0.8452,0.50888 1.16536,0.32703 1.16417,-0.1053 2.75167,-0.0464 3.52778,0.13081 1.34974,0.30825 1.89876,0.27848 1.53693,-0.0833 z m -10.68279,-3.872336 c -0.1291,-0.68814 -0.38628,-1.25117 -0.57151,-1.25117 -0.43607,0 -0.42463,0.34831 0.0568,1.729256 0.50355,1.44448 0.82024,1.15035 0.51474,-0.478086 z m 19.269341,-3.49341 c -1.62148,-2.14764 -4.348621,-3.75498 -6.370991,-3.75498 -1.62105,0 -1.19337,0.36176 0.88719,0.75045 2.087551,0.39 3.446811,1.32467 5.178771,3.5611 0.74348,0.96004 1.44042,1.65689 1.54875,1.54856 0.10833,-0.10833 -0.45134,-1.05564 -1.24372,-2.10513 z m -16.888521,-2.88267 c -0.13844,-2.73137 -0.3393,-4.26991 -0.50333,-3.85531 -0.2668,0.67437 -0.0897,6.21722 0.25158,7.87532 0.37573,1.82527 0.47094,0.30482 0.25175,-4.02001 z m 11.61312,4.22793 c -1.17555,-0.82339 -3.14015,-1.57547 -4.043,-1.54772 -0.50803,0.0156 -0.15426,0.24895 0.95881,0.6324 0.97014,0.33422 2.08139,0.79451 2.46944,1.02287 1.03784,0.61074 1.51986,0.52641 0.61475,-0.10755 z m -6.2164,-8.85264 c 0.0716,-1.428681 -0.007,-2.597601 -0.17475,-2.597601 -0.39903,0 -0.74397,2.151151 -0.73538,4.586111 0.0103,2.91307 0.74498,1.30785 0.91013,-1.98851 z m 16.211801,-1.495881 c -0.52569,-0.85059 -7.98191,-1.57669 -8.44792,-0.82267 -0.0948,0.15348 0.33235,0.22717 0.94933,0.16376 0.61697,-0.0634 2.3124,0.10754 3.76761,0.37991 3.30743,0.619051 3.97185,0.668731 3.73098,0.279 z m 7.38152,-1.10172 c -0.11992,-0.19403 -0.52693,-0.35278 -0.90447,-0.35278 -0.37754,0 -2.44433,-0.64686 -4.59288,-1.43745 -3.25154,-1.19647 -4.15318,-1.39593 -5.37816,-1.18973 -2.75579,0.46389 -3.00092,0.88519 -0.39488,0.67868 2.31702,-0.18361 2.72906,-0.0996 5.99722,1.22226 3.34742,1.35393 5.74647,1.84484 5.27317,1.07902 z m 8.29028,-1.67735 c 0,-0.33276 -4.83049,-0.31253 -5.16465,0.0216 -0.13454,0.13454 0.97247,0.24462 2.46002,0.24462 1.48754,0 2.70463,-0.11981 2.70463,-0.26624 z m -24.870841,-1.14487 c 0.11992,-0.19403 0.0556,-0.35278 -0.14303,-0.35278 -0.20153,0 -0.0744,-0.66868 0.28765,-1.51337 0.757241,-1.76657 1.314451,-4.12377 0.851451,-3.60191 -0.17214,0.19403 -0.687431,1.49637 -1.145081,2.8941 -0.50109,1.5304 -1.05795,2.6017 -1.39987,2.6931 -0.31228,0.0835 -0.14059,0.1702 0.38154,0.19271 0.52212,0.0225 1.04743,-0.11782 1.16734,-0.31185 z m 19.728181,-0.47332 c -0.14237,-0.37099 -4.1147,-1.82826 -6.14623,-2.25477 -1.16019,-0.24357 2.05977,1.33927 3.79236,1.86422 1.01864,0.30863 1.85208,0.71801 1.85208,0.90972 0,0.19171 0.15182,0.25474 0.33738,0.14006 0.18555,-0.11468 0.25953,-0.41133 0.16441,-0.65923 z m -18.49345,-6.40585 c 0,-0.48507 -0.15875,-0.88194 -0.35278,-0.88194 -0.194031,0 -0.352781,0.39687 -0.352781,0.88194 0,0.48507 0.15875,0.88195 0.352781,0.88195 0.19403,0 0.35278,-0.39688 0.35278,-0.88195 z m 16.94983,0.37265 c -0.59617,-0.71834 -6.3665,-2.54067 -6.3665,-2.01061 0,0.12995 0.81584,0.43007 1.81297,0.66693 0.99714,0.23686 2.3862,0.72996 3.08681,1.09578 1.59149,0.83098 2.00922,0.90159 1.46672,0.2479 z m -11.12414,-9.65761 c -0.28831,-0.2883 -1.20856,2.24158 -1.40793,3.87058 -0.15946,1.30299 -0.0547,1.14009 0.69609,-1.08238 0.4861,-1.43892 0.80643,-2.69361 0.71184,-2.7882 z m 1.73081,-1.44073 c -0.2351,-0.24094 -1.12969,2.17926 -1.35662,3.67014 -0.1595,1.04792 0.005,0.77553 0.64038,-1.05834 0.47033,-1.35819 0.79264,-2.5335 0.71624,-2.6118 z m 5.65498,-3.7382 c 0.14304,-0.97014 0.14133,-1.64677 -0.004,-1.50362 -0.28111,0.27727 -1.20219,4.6721 -1.1654,5.56057 0.0345,0.8334 0.88144,-2.10535 1.16919,-4.05695 z m 1.73129,-2.30064 0.21759,-1.22714 -0.47677,1.05834 c -0.26222,0.58208 -0.566,1.77271 -0.67506,2.64583 l -0.1983,1.5875 0.45748,-1.4187 c 0.25162,-0.78028 0.55539,-1.9709 0.67506,-2.64583 z m 13.45584,1.06592 c 0.12839,-0.20774 -0.26192,-0.35476 -0.94932,-0.3576 -0.64204,-0.003 -1.56423,-0.0843 -2.04929,-0.18137 -0.55795,-0.1117 -0.42834,0.01 0.35277,0.33075 1.49232,0.61316 2.35368,0.68095 2.64584,0.20822 z m -7.9375,-1.05833 c 0.20768,-0.38806 0.29822,-0.70556 0.20121,-0.70556 -0.097,0 -0.34631,0.3175 -0.55399,0.70556 -0.20768,0.38805 -0.29823,0.70555 -0.20121,0.70555 0.097,0 0.34631,-0.3175 0.55399,-0.70555 z m 8.73756,-0.25207 c -0.5301,-0.0805 -1.4826,-0.0821 -2.11666,-0.004 -0.63407,0.0785 -0.20035,0.14437 0.96382,0.14635 1.16417,0.002 1.68295,-0.0623 1.15284,-0.14275 z"
       id="path246"
       inkscape:highlight-color="#f6d171" />
  </g>
</svg>
