<?xml version="1.0" encoding="UTF-8" standalone="no"?>
<!-- Created with Inkscape (http://www.inkscape.org/) -->

<svg
   width="210mm"
   height="297mm"
   viewBox="0 0 210 297"
   version="1.1"
   id="svg14242"
   inkscape:version="1.2.2 (732a01da63, 2022-12-09)"
   sodipodi:docname="medaillon.svg"
   xmlns:inkscape="http://www.inkscape.org/namespaces/inkscape"
   xmlns:sodipodi="http://sodipodi.sourceforge.net/DTD/sodipodi-0.dtd"
   xmlns:xlink="http://www.w3.org/1999/xlink"
   xmlns="http://www.w3.org/2000/svg"
   xmlns:svg="http://www.w3.org/2000/svg">
  <sodipodi:namedview
     id="namedview14244"
     pagecolor="#505050"
     bordercolor="#eeeeee"
     borderopacity="1"
     inkscape:showpageshadow="0"
     inkscape:pageopacity="0"
     inkscape:pagecheckerboard="0"
     inkscape:deskcolor="#505050"
     inkscape:document-units="mm"
     showgrid="false"
     inkscape:zoom="0.2102413"
     inkscape:cx="347.22007"
     inkscape:cy="561.25984"
     inkscape:window-width="865"
     inkscape:window-height="487"
     inkscape:window-x="1692"
     inkscape:window-y="55"
     inkscape:window-maximized="0"
     inkscape:current-layer="layer1" />
  <defs
     id="defs14239">
    <radialGradient
       inkscape:collect="always"
       xlink:href="#linearGradient1172"
       id="radialGradient1176"
       cx="210.49216"
       cy="294.01968"
       fx="210.49216"
       fy="294.01968"
       r="209.73608"
       gradientTransform="matrix(0.44162453,0,0,0.59046262,13.382681,-23.219205)"
       gradientUnits="userSpaceOnUse" />
    <linearGradient
       inkscape:collect="always"
       id="linearGradient1172">
      <stop
         style="stop-color:#000000;stop-opacity:1;"
         offset="0"
         id="stop1168" />
      <stop
         style="stop-color:#000000;stop-opacity:0;"
         offset="1"
         id="stop1170" />
    </linearGradient>
    <filter
       inkscape:label="Tinfoil"
       inkscape:menu-tooltip="Metallic foil effect combining two lighting types and variable crumple"
       inkscape:menu="Bumps"
       height="1.0171264"
       width="1.0243922"
       x="-0.0121961"
       y="-0.0085632186"
       style="color-interpolation-filters:sRGB;"
       id="filter19301">
      <feGaussianBlur
         in="SourceGraphic"
         result="result14"
         stdDeviation="0.5"
         id="feGaussianBlur19275" />
      <feTurbulence
         type="fractalNoise"
         seed="25"
         baseFrequency="0.004 0.008"
         numOctaves="1"
         result="result5"
         id="feTurbulence19277" />
      <feDisplacementMap
         scale="100"
         xChannelSelector="R"
         in="result5"
         result="result8"
         yChannelSelector="B"
         in2="result14"
         id="feDisplacementMap19279" />
      <feGaussianBlur
         stdDeviation="0.5"
         result="result17"
         id="feGaussianBlur19281" />
      <feSpecularLighting
         specularExponent="40"
         specularConstant="1"
         surfaceScale="12"
         result="result2"
         lighting-color="rgb(254,218,71)"
         in="result17"
         id="feSpecularLighting19285">
        <feDistantLight
           elevation="70"
           azimuth="225"
           id="feDistantLight19283" />
      </feSpecularLighting>
      <feDiffuseLighting
         diffuseConstant="0.5"
         surfaceScale="50"
         in="result17"
         lighting-color="rgb(116,245,254)"
         id="feDiffuseLighting19289">
        <feDistantLight
           elevation="55"
           azimuth="225"
           id="feDistantLight19287" />
      </feDiffuseLighting>
      <feBlend
         in2="SourceGraphic"
         result="result9"
         mode="screen"
         id="feBlend19291" />
      <feComposite
         k3="1"
         k2="1"
         in="result2"
         result="result11"
         in2="result9"
         operator="arithmetic"
         id="feComposite19293" />
      <feComposite
         in2="SourceGraphic"
         operator="in"
         result="result16"
         id="feComposite19295" />
      <feBlend
         mode="multiply"
         in2="result16"
         id="feBlend19297" />
      <feDisplacementMap
         in2="result5"
         xChannelSelector="R"
         scale="0"
         id="feDisplacementMap19299" />
    </filter>
  </defs>
  <g
     inkscape:label="Calque 1"
     inkscape:groupmode="layer"
     id="layer1">
    <rect
       style="opacity:1;fill:#f6d171;fill-opacity:0.861386;stroke:#f2f2f2;stroke-width:0.264999;filter:url(#filter19301)"
       id="rect14778"
       width="207.6483"
       height="295.74155"
       x="2.5169489"
       y="2.5169489"
       transform="matrix(1.2782541,0,0,0.99988304,-0.01569785,0.01758993)" />
    <path
       style="fill:#f6d171;fill-opacity:1;stroke:url(#radialGradient1176);stroke-width:0.574606;stroke-opacity:1;image-rendering:auto"
       d="m 22.377134,273.4753 c -4.925141,-1.11431 -7.971524,-5.03986 -8.307704,-10.70519 -0.18444,-3.10847 0.01671,-4.26571 1.09954,-6.33065 2.091774,-3.98844 5.958035,-7.76636 11.877561,-11.6062 7.573169,-4.91253 10.687433,-7.49099 13.08905,-10.83711 3.615221,-5.03703 5.242075,-14.74752 2.688736,-16.04878 -0.647722,-0.3301 -1.177671,-0.88685 -1.177671,-1.2372 0,-0.35035 -0.395335,-1.05302 -0.878514,-1.56145 -2.046356,-2.15326 2.795813,-3.9185 10.77151,-3.92679 3.00407,-0.003 3.153492,-0.0763 3.974622,-1.94775 1.259158,-2.86971 1.076354,-4.51599 -0.618882,-5.5737 -0.809648,-0.50517 -1.45116,-1.35426 -1.425587,-1.88685 0.02903,-0.60439 0.159732,-0.70046 0.347611,-0.25564 0.165577,0.39199 1.072119,1.09236 2.014426,1.5564 2.574033,1.26752 2.149826,-0.0204 -0.972054,-2.95117 -3.148651,-2.95593 -3.068799,-3.86336 0.119682,-1.36055 1.213091,0.95219 2.320713,1.62164 2.461369,1.48772 0.140713,-0.13402 -0.56046,-1.4548 -1.558053,-2.9352 -2.805525,-4.16331 -3.751173,-6.78195 -4.206929,-11.64943 -0.231009,-2.46718 -0.623136,-4.92738 -0.871385,-5.46706 -0.889515,-1.93383 0.847683,-0.96594 2.359499,1.31462 1.864106,2.81194 2.570396,2.57223 0.806959,-0.27389 -1.402521,-2.2636 -1.335306,-3.43998 0.459092,-8.03513 0.806278,-2.06475 1.328148,-2.75361 1.768465,-2.3343 0.440317,0.41928 0.552433,-0.12292 0.37988,-1.83703 -0.298709,-2.96777 1.695703,-7.74155 2.421576,-5.79616 0.670372,1.79661 1.67195,3.65767 1.868025,3.47098 0.09932,-0.0946 -0.112664,-1.67416 -0.471262,-3.51007 -0.649543,-3.32607 -0.643067,-3.3542 1.800174,-7.81746 1.974516,-3.60696 2.410461,-4.12151 2.23839,-2.64193 -0.117498,1.01059 0.02385,1.76203 0.314214,1.66987 0.290345,-0.0922 0.594644,-1.72265 0.676232,-3.62329 0.122852,-2.86132 0.52127,-4.03111 2.316605,-6.80092 1.192545,-1.83984 2.168269,-3.689 2.168269,-4.10922 0,-1.32018 4.004212,-6.49384 6.510304,-8.41163 1.427586,-1.09249 2.896436,-2.93306 3.621432,-4.53787 0.670834,-1.48499 1.800736,-3.13516 2.510894,-3.66711 0.710158,-0.53194 1.484412,-1.72124 1.720572,-2.64285 0.236126,-0.92164 2.066021,-4.05009 4.066406,-6.95214 l 3.637086,-5.27643 0.399886,2.19245 c 0.521923,2.86167 1.744518,5.73897 2.077517,4.88933 0.143835,-0.3671 -0.01872,-1.62874 -0.361309,-2.80362 -1.046568,-3.58888 -0.760323,-5.18049 1.446547,-8.04334 2.262528,-2.93506 5.836985,-6.148343 6.839395,-6.148343 0.34694,0 1.16743,-0.649664 1.82334,-1.443672 0.65589,-0.794038 1.7871,-1.658953 2.51378,-1.922059 0.99908,-0.361724 1.25455,-0.81043 1.04775,-1.840516 -0.45552,-2.269175 2.39873,-6.488866 8.61538,-12.736909 l 5.85803,-5.887604 -0.32218,2.310382 c -0.19712,1.413708 -0.0675,2.460235 0.33397,2.696522 0.44712,0.26315 0.65613,-0.462689 0.65613,-2.27864 0,-2.500592 0.20361,-2.852591 3.30423,-5.712431 2.0269,-1.869482 3.4586,-2.809819 3.70351,-2.432468 0.23816,0.366991 0.83273,-0.112844 1.47371,-1.189529 0.59097,-0.99258 3.18744,-3.541383 5.76997,-5.664 l 4.69548,-3.859304 -0.42246,3.219995 c -0.23236,1.770984 -1.02306,4.769296 -1.7571,6.662925 -0.73404,1.893608 -1.5274,3.94758 -1.76301,4.564382 l -0.42844,1.121439 0.87989,-1.121439 c 1.38526,-1.765691 3.78229,-8.656923 4.23223,-12.167454 0.52965,-4.132243 2.16692,-6.336003 6.32411,-8.512093 1.83811,-0.962176 4.20517,-2.367235 5.26014,-3.122353 1.70346,-1.219317 1.86886,-1.250821 1.4783,-0.281619 -0.24188,0.600242 -0.72053,2.353534 -1.06365,3.896212 -0.34312,1.542674 -1.14069,3.77746 -1.77237,4.966196 -0.63165,1.188737 -0.86021,1.991664 -0.50786,1.784305 0.92271,-0.543037 2.76209,-4.177955 3.27345,-6.468884 1.03223,-4.624353 2.07472,-6.090529 6.17727,-8.687694 2.19525,-1.389739 4.15982,-2.526787 4.36573,-2.526787 0.20595,0 -0.17939,1.03375 -0.85629,2.297236 -0.67689,1.263473 -1.11507,2.40734 -0.97372,2.541933 0.14136,0.13463 1.02098,-1.211942 1.95475,-2.992286 1.46428,-2.791748 2.34257,-3.639372 6.38502,-6.162248 2.57799,-1.60889 4.78358,-2.833518 4.90131,-2.721398 0.11774,0.112056 -0.16936,0.9212 -0.63799,1.797957 -1.708,3.195389 -1.62448,4.319466 0.11232,1.511618 2.33698,-3.778194 3.80027,-4.802565 9.82652,-6.879025 5.63228,-1.940707 7.46261,-2.205271 4.36954,-0.631601 -1.13351,0.576687 -2.98834,1.99071 -4.12184,3.142268 -1.99205,2.023818 -1.92851,2.002013 1.90241,-0.652769 7.80489,-5.408641 9.40904,-6.460366 9.58925,-6.28686 0.44433,0.427815 -0.83734,5.129751 -1.59493,5.851189 -0.46161,0.439578 -1.81732,0.83424 -3.01266,0.877028 -1.19538,0.04274 -2.1734,0.289247 -2.1734,0.547677 0,0.675662 3.3958,0.579244 4.7998,-0.136219 1.72338,-0.8783 1.81315,-0.415514 0.27561,1.420718 -1.11118,1.326986 -2.22509,1.78896 -6.30391,2.614315 l -4.95424,1.0025 3.53299,-0.146872 c 1.94314,-0.08074 4.06293,-0.341954 4.71067,-0.580451 1.0099,-0.37187 0.97966,-0.267219 -0.21246,0.734756 -1.22277,1.027757 -1.25983,1.168392 -0.30778,1.168392 0.94446,0 0.89343,0.179846 -0.40062,1.412148 -1.50659,1.434642 -5.67394,2.423375 -10.8558,2.575614 l -2.35535,0.06912 2.93778,0.467459 c 1.68194,0.267646 3.94731,0.245316 5.29949,-0.05228 3.63222,-0.799304 3.66803,-0.719722 0.88965,1.976119 -1.43029,1.387801 -2.91666,2.523257 -3.30302,2.523257 -0.38638,0 -1.25735,0.895515 -1.93548,1.990027 -1.24264,2.005571 -4.17822,3.617214 -6.5887,3.617214 -0.69633,0 -2.12132,0.693891 -3.16662,1.541992 -1.04533,0.848084 -2.40516,1.861963 -3.02192,2.253048 -0.95081,0.602929 -0.51978,0.684339 2.83428,0.535298 3.20051,-0.142261 4.24023,-0.430393 5.44669,-1.509711 0.82011,-0.73366 1.49111,-1.134156 1.49111,-0.889966 0,0.244186 -1.81289,2.180602 -4.02863,4.303157 -3.77949,3.620537 -4.19091,3.85921 -6.65267,3.85921 -1.44319,0 -4.86358,-0.752004 -7.60079,-1.671107 -2.73725,-0.919116 -5.77171,-1.648453 -6.74331,-1.620749 -1.50897,0.04307 -1.41287,0.117142 0.65919,0.507926 1.3341,0.251658 4.51381,1.460867 7.06598,2.687129 2.55218,1.226264 5.7265,2.39626 7.05402,2.599981 2.06999,0.317668 2.67789,0.158779 4.26904,-1.116226 2.28358,-1.829793 2.45135,-0.879553 0.23607,1.337033 -2.34851,2.349848 -9.22296,4.241995 -13.93914,3.836669 -3.38724,-0.291124 -3.48416,-0.266216 -1.81215,0.465663 2.37309,1.038738 5.84885,1.01701 8.01592,-0.05006 l 1.77465,-0.873915 -1.3623,2.328249 c -2.14709,3.669586 -3.38844,4.188908 -9.95526,4.164906 l -5.69501,-0.02083 2.43333,1.042508 c 2.45935,1.053647 6.51345,1.115637 8.83181,0.134947 0.9472,-0.400669 1.01457,-0.317637 0.4879,0.601449 -0.33611,0.586443 -1.53825,2.022341 -2.67149,3.190862 -1.69522,1.747987 -2.32966,2.060234 -3.57929,1.761564 -2.11869,-0.506371 -1.89711,0.300675 0.76115,2.772475 4.13223,3.84242 8.94999,3.19894 10.07239,-1.345242 l 0.48139,-1.949025 0.0603,1.84783 c 0.073,2.234021 -2.00813,4.461749 -4.63533,4.962092 -2.13274,0.406178 -2.1664,0.548661 -0.45665,1.933699 l 1.32486,1.073266 -1.75019,1.379965 c -1.80158,1.420507 -5.94398,2.540881 -9.39452,2.540881 -1.08417,0 -2.31176,0.403809 -2.74752,0.903804 -0.43324,0.497085 -1.32685,1.111914 -1.9858,1.366261 -0.89349,0.344861 -0.50714,0.471481 1.51944,0.498011 1.869,0.0245 3.185,-0.314638 4.2147,-1.08591 1.6115,-1.207115 3.10757,-1.513704 2.45117,-0.502332 -0.59708,0.919957 -5.04111,2.718772 -6.75179,2.732902 -1.10957,0.01 -1.66063,0.44233 -2.15755,1.69589 -0.60546,1.52748 -0.54917,1.70608 0.60695,1.92621 5.61016,1.06821 9.45659,0.5612 11.22265,-1.4794 0.6137,-0.70912 0.99445,-0.92615 0.8461,-0.48232 -0.72802,2.17814 -6.11956,3.95917 -11.98519,3.95917 -1.37614,0 -3.19933,0.34448 -4.05156,0.76552 l -1.54952,0.76552 2.80706,0.77649 c 6.60525,1.82708 12.71063,0.50874 15.73764,-3.39827 2.17405,-2.80611 1.83555,-1.19805 -0.41783,1.98515 -2.73382,3.86178 -6.03445,5.35276 -11.68566,5.27874 -6.45014,-0.0846 -5.55561,0.15502 -15.91642,-4.2598 -2.46967,-1.05235 -4.69886,-1.91335 -4.9537,-1.91335 -0.7439,0 5.66914,4.21518 8.48174,5.5749 1.6116,0.77913 3.0945,1.11761 3.97463,0.90724 1.81307,-0.43333 1.77703,0.29902 -0.1207,2.44641 -1.0919,1.23571 -2.03669,1.72521 -3.32984,1.72521 -1.76812,0 -1.78339,0.0232 -0.73967,1.12147 0.66691,0.70169 1.81363,1.12142 3.06387,1.12142 1.69535,0 2.12092,-0.27608 2.80888,-1.82235 0.68044,-1.5293 0.87722,-1.65998 1.22374,-0.81256 0.51915,1.26954 -1.57796,3.51377 -3.76654,4.03085 -0.85989,0.20314 -2.09337,0.82049 -2.7411,1.37186 -1.75237,1.49168 -3.46317,1.69746 -7.21243,0.86751 -1.85726,-0.41111 -3.45921,-0.66907 -3.55989,-0.57318 -0.10071,0.0959 0.81273,0.76031 2.02975,1.47658 2.25357,1.32631 5.51047,1.68666 7.46765,0.82626 0.89668,-0.39418 0.77384,0.10336 -0.72228,2.92569 -1.02841,1.94002 -2.31442,3.5553 -2.99413,3.76077 -1.80684,0.54605 -1.44633,1.5703 1.14772,3.26079 3.10809,2.02545 6.46757,0.4978 6.51127,-2.96087 0.0149,-1.22617 0.0983,-1.28594 0.61372,-0.44342 0.73722,1.20495 -0.0121,2.68585 -2.17941,4.30959 -2.37613,1.77984 -6.08372,1.52809 -11.66491,-0.79204 -2.57105,-1.06882 -4.75126,-1.87032 -4.84492,-1.78114 -0.46617,0.44391 5.73353,4.31466 7.08074,4.42082 1.81294,0.14294 1.88188,0.45416 0.61677,2.78388 -1.18507,2.18224 -0.35408,2.87931 2.89393,2.42761 3.13364,-0.43581 4.85598,-1.6669 5.93938,-4.24539 1.10581,-2.63169 1.52679,-2.78898 1.52679,-0.5704 0,0.92541 -0.63384,2.35646 -1.45567,3.28651 -0.80062,0.90606 -1.3091,1.78696 -1.12995,1.95755 0.64665,0.61573 -0.94072,2.51043 -2.67704,3.19529 -1.54294,0.60859 -1.69105,0.84878 -1.13425,1.83954 0.59504,1.05874 1.02207,1.11563 6.02477,0.80268 5.90066,-0.3691 12.72589,-2.10404 13.99194,-3.55674 0.45773,-0.52522 0.80662,-2.20252 0.80662,-3.87813 0,-3.50077 -1.51544,-5.44391 -4.91918,-6.30744 -1.72591,-0.43789 -1.8582,-0.55563 -0.67474,-0.60053 3.39026,-0.12861 6.5137,3.01472 7.38371,7.43082 l 0.41868,2.12522 2.03736,-1.86426 c 2.56631,-2.34821 3.58396,-4.19552 4.30453,-7.81364 0.91864,-4.6127 -1.27538,-7.84296 -6.0626,-8.92607 l -1.89896,-0.42965 2.21678,-0.0575 c 1.75112,-0.0453 2.67879,0.34609 4.41627,1.86341 2.16007,1.88642 2.19944,1.99507 2.19944,6.06896 0,4.71818 -0.97277,6.58231 -6.04513,11.58414 -1.53305,1.51174 -3.44979,3.44443 -4.25943,4.29489 -2.75204,2.8908 -7.05566,4.27519 -14.30769,4.60251 -6.06514,0.27378 -6.6944,0.41248 -9.05346,1.99588 -2.04975,1.37585 -3.35389,1.76886 -6.81038,2.05239 -3.98405,0.32681 -4.16229,0.3961 -2.61756,1.01764 2.05508,0.82688 5.36101,0.86072 7.06637,0.0724 1.01988,-0.47147 0.94412,-0.29735 -0.36598,0.84109 -1.92449,1.67232 -4.98255,1.90145 -8.21472,0.61543 -1.92542,-0.76609 -2.13407,-0.74364 -3.16327,0.34027 -0.60601,0.63828 -2.29423,1.77847 -3.7516,2.53377 -2.41167,1.24994 -2.2473,1.38426 0.4372,0.35727 1.03934,-0.39763 -0.99436,2.32397 -4.15217,5.55653 -1.56943,1.60664 -3.94813,2.45751 -5.39358,1.92934 -1.25657,-0.45921 -2.42979,0.90564 -3.55734,4.13827 -1.761762,5.05103 -5.017026,9.54327 -7.77429,10.72852 -0.254835,0.10959 -1.258301,1.06839 -2.229886,2.13077 l -1.766487,1.93157 2.06091,-1.41596 c 1.133484,-0.77876 2.367541,-1.58773 2.742345,-1.79771 0.374769,-0.20996 -0.243844,1.40674 -1.374721,3.59273 -2.224855,4.30047 -4.038533,5.55971 -8.007734,5.55971 -2.466895,0 -4.667988,1.40122 -3.424239,2.17989 1.277825,0.79998 -2.327425,4.86219 -4.719589,5.31778 -2.901656,0.55265 -6.804789,0.41436 -8.449735,-0.29936 -0.826252,-0.35848 -1.697672,-0.46573 -1.936492,-0.23831 -0.448195,0.4268 0.09464,0.81742 4.208382,3.02846 2.076034,1.11579 2.177249,1.24916 0.72377,0.95371 -0.92939,-0.18892 -2.704495,-1.11999 -3.944695,-2.06907 -1.240181,-0.94904 -2.634639,-1.58679 -3.098792,-1.41717 -0.788799,0.28825 -3.337798,6.45326 -3.337798,8.07287 0,0.40269 0.378542,0.73216 0.841193,0.73216 0.462651,0 1.237729,0.37762 1.722394,0.83914 0.782373,0.74504 0.782253,1.02802 -8.84e-4,2.52327 -0.485251,0.92627 -1.127833,1.68413 -1.427975,1.68413 -0.821832,0 -0.63786,7.12238 0.279913,10.83685 1.478232,5.98289 4.256454,8.99436 15.994872,17.33791 9.463549,6.72658 11.953276,9.7429 12.501235,15.14523 0.400851,3.95222 -0.869795,7.50466 -3.664326,10.24455 l -2.398516,2.35162 -22.324805,0.35846 c -26.868671,0.43143 -36.520628,0.38546 -39.046258,-0.18596 z m 61.245498,-4.36726 c 2.491875,-2.14743 3.706488,-6.37405 2.776685,-9.6622 -0.701441,-2.48064 -3.945669,-6.68717 -6.281259,-8.14446 -1.461649,-0.91201 -1.368497,-0.69811 0.752238,1.72698 3.419416,3.91015 4.518205,6.21967 4.518205,9.49652 0,3.95363 -1.337075,6.14262 -4.42488,7.24429 -2.370516,0.84571 -2.398792,0.88043 -0.492637,0.60472 1.112226,-0.16091 2.530474,-0.73053 3.151648,-1.26585 z m -62.585126,0.51279 c 0,-0.26058 -0.531068,-0.93147 -1.180144,-1.49084 -2.54035,-2.18924 -2.971339,-8.72618 -0.83894,-12.72417 0.543436,-1.01888 1.927882,-2.98798 3.076546,-4.37577 l 2.088482,-2.52324 -2.493297,2.24288 c -3.298756,2.96748 -4.657697,5.14813 -5.338505,8.56666 -0.655999,3.29397 -0.133196,5.51438 2.031771,8.62975 1.383544,1.99087 2.654087,2.79259 2.654087,1.67473 z m 52.388163,-7.28099 c 0.851306,-2.91872 0.750596,-4.40856 -0.324632,-4.80145 -2.118994,-0.77431 -2.307172,-0.41108 -2.307172,4.45403 0,4.62755 0.03538,4.75283 1.0158,3.59983 0.558674,-0.65702 1.285884,-2.12059 1.616004,-3.25241 z m -3.13448,-1.71716 c -0.288926,-2.793 -1.127516,-4.58244 -1.832776,-3.91086 -0.161736,0.15405 -0.0337,1.14489 0.284607,2.20182 0.318319,1.05692 0.595562,3.18498 0.616092,4.72901 0.03288,2.47157 0.109495,2.63967 0.641099,1.40552 0.332071,-0.77101 0.463016,-2.76248 0.290978,-4.42549 z m 9.031736,1.38822 c 0.0116,-1.43457 -0.324983,-0.98702 -0.809282,1.07471 -0.288577,1.22851 -0.233933,1.45536 0.202555,0.8411 0.328751,-0.46259 0.601777,-1.32471 0.606727,-1.91581 z m -47.71958,-2.00928 c 0.25264,0 0.635472,-1.63694 0.850724,-3.63764 0.215251,-2.0007 0.54517,-4.0193 0.733148,-4.48579 0.251707,-0.62462 -0.06659,-0.84814 -1.207884,-0.84814 -1.739387,0 -2.510839,1.34568 -3.09397,5.39694 -0.421171,2.92612 0.07162,4.37381 1.332167,3.91317 0.509554,-0.18619 1.133157,-0.33854 1.385815,-0.33854 z m 5.921479,-1.6039 c 0,-0.88214 0.163408,-2.73952 0.363236,-4.12753 0.342657,-2.38055 0.277428,-2.53924 -1.150348,-2.79914 -1.266872,-0.23062 -1.614018,-0.001 -2.129727,1.40758 -0.338886,0.92572 -0.616164,2.90709 -0.616164,4.40305 0,2.64839 0.04658,2.71994 1.766511,2.71994 1.551056,0 1.766492,-0.19558 1.766492,-1.6039 z m 36.173947,-3.94964 c -0.302262,-0.26859 -1.177104,-0.66935 -1.944104,-0.89061 -1.025198,-0.29568 -1.325542,-0.20506 -1.134008,0.34208 0.143214,0.40938 0.903316,0.89937 1.688944,1.08895 1.62902,0.39307 2.19284,0.17371 1.389168,-0.54042 z m -4.965816,-0.6144 c 0,-0.30838 -0.264977,-0.56073 -0.588836,-0.56073 -0.323847,0 -0.588821,0.25235 -0.588821,0.56073 0,0.3084 0.264974,0.56074 0.588821,0.56074 0.323859,0 0.588836,-0.25234 0.588836,-0.56074 z m 4.120318,-4.20922 c -1.218633,-3.05222 -2.531492,-4.91308 -6.210874,-8.80329 -5.575068,-5.89453 -6.885803,-8.83496 -7.294056,-16.36333 -0.303648,-5.59896 -0.43668,-6.14285 -1.602684,-6.55168 -1.187021,-0.41618 -1.298001,-0.22881 -1.669501,2.81934 -0.461129,3.78345 0.528531,10.89356 2.047159,14.70771 1.009772,2.53609 8.179581,15.03614 8.624489,15.03614 0.793388,0 -0.239405,-2.18898 -3.322608,-7.04213 -4.604888,-7.24835 -5.922899,-11.24457 -6.1844,-18.75119 l -0.205105,-5.88759 0.4969,5.32689 c 0.673513,7.22013 2.213972,11.49435 6.769951,18.78423 2.120147,3.39238 4.002178,6.60953 4.182295,7.14924 0.238269,0.71394 0.954357,0.98125 2.628547,0.98125 2.212836,0 2.279568,-0.0539 1.739887,-1.40559 z m -36.278651,-3.85943 c 1.11658,-1.66219 2.317104,-3.19102 2.66784,-3.39744 1.113728,-0.65547 0.688699,-1.43055 -0.784475,-1.43055 -1.053139,0 -2.122705,0.8874 -4.121839,3.4199 -1.484811,1.88095 -2.699653,3.64723 -2.699653,3.92505 0,0.27785 0.654298,0.50518 1.453978,0.50518 1.115149,0 1.927131,-0.70432 3.484149,-3.02214 z m 5.123249,-0.12783 c 1.925528,-2.48208 2.272824,-3.25473 1.637853,-3.64399 -0.443204,-0.27172 -1.194847,-0.42936 -1.670316,-0.35031 -0.8449,0.14055 -5.318257,5.75868 -5.318257,6.67933 0,0.25573 0.654082,0.46497 1.453514,0.46497 1.082967,0 2.076466,-0.80305 3.897206,-3.15 z m 16.124701,-1.87036 c 0.454069,-0.69961 -3.970331,-1.82196 -6.310119,-1.60064 -1.004235,0.095 -1.930237,0.47561 -2.057792,0.84585 -0.159402,0.46297 0.929659,0.73565 3.487653,0.87324 2.045771,0.10995 3.902664,0.24866 4.126446,0.30807 0.223781,0.0595 0.562997,-0.13259 0.753812,-0.42652 z m -13.897511,-6.61465 c 1.540676,-2.88045 3.021079,-7.80751 3.021079,-10.0546 0,-3.08912 -0.89634,-2.09499 -1.590484,1.764 -0.358611,1.99365 -1.451192,5.14771 -2.427935,7.00905 -1.295663,2.46907 -1.552994,3.38425 -0.951623,3.38425 0.453354,0 1.330385,-0.94622 1.948963,-2.1027 z m 0.07696,-20.65234 c 0,-0.77132 0.961388,-0.86259 7.383023,-0.70092 5.755684,0.145 7.502398,0.37028 7.924722,1.02233 0.422439,0.65225 0.697847,0.68772 1.250945,0.161 1.242521,-1.1832 -2.254328,-1.95457 -9.198266,-2.02902 -6.364569,-0.0683 -9.634532,0.63692 -8.814237,1.90084 0.546206,0.8416 1.453813,0.62045 1.453813,-0.35423 z m -1.766493,-2.79097 c 0,-0.48083 -0.264972,-0.71824 -0.588835,-0.52764 -0.323846,0.19061 -0.588821,0.58397 -0.588821,0.87418 0,0.29021 0.264975,0.52764 0.588821,0.52764 0.323863,0 0.588835,-0.39339 0.588835,-0.87418 z m 15.118481,-1.17694 c -0.213096,-0.20293 -0.160236,-0.64451 0.117511,-0.98129 0.277694,-0.33676 1.500952,-3.51406 2.718333,-7.0606 2.688053,-7.83105 6.879812,-17.98683 11.456103,-27.75584 3.641318,-7.77311 4.687691,-10.47386 3.693206,-9.53231 -0.32573,0.3084 -1.660436,2.9578 -2.965981,5.88761 -1.305545,2.92977 -3.998324,8.85942 -5.983955,13.177 -4.075454,8.8617 -9.432816,22.71975 -9.432816,24.40012 0,0.74963 -0.395702,1.11281 -1.212425,1.11281 -0.666835,0 -1.048649,0.25233 -0.848503,0.5607 0.200163,0.30842 0.922395,0.56075 1.604969,0.56075 0.682592,0 1.06671,-0.16605 0.853612,-0.36895 z m 13.082123,-12.7398 c 1.858428,0.26109 2.470133,0.18427 2.173378,-0.27298 -0.432439,-0.6663 -6.048252,-0.88345 -7.655758,-0.29601 -1.759916,0.64309 -0.930576,1.26331 0.982302,0.73458 1.052537,-0.29095 3.077577,-0.36545 4.500078,-0.16559 z m 2.268368,-3.81667 c -3.79347,-0.33642 -6.093118,-0.31589 -6.771571,0.0604 -0.734665,0.40752 0.901751,0.55267 5.744239,0.50945 l 6.771562,-0.0604 z m -11.406849,-9.56878 c -0.467291,-2.90561 -1.83334,-5.62307 -2.59989,-5.17196 -0.911261,0.53632 -0.653933,2.30175 0.731247,5.01676 1.62527,3.18558 2.365911,3.24709 1.868643,0.15519 z m 18.77603,1.18373 c 1.827001,-0.93111 0.500596,-1.60428 -3.16102,-1.60428 -2.233182,0 -4.218928,0.35729 -5.411939,0.97378 l -1.884468,0.97375 2.649749,0.36017 c 2.96232,0.40266 6.211761,0.10996 7.807678,-0.70342 z m 5.411601,-0.5225 c 0.347746,-0.32393 -0.01493,-0.52104 -0.958365,-0.52104 -0.834744,0 -1.881417,0.42033 -2.325875,0.9341 -0.732013,0.84606 -0.641686,0.89516 0.958354,0.521 0.971573,-0.22713 2.01821,-0.64749 2.325886,-0.93406 z m -27.373219,-6.38344 c 0.573898,-0.65851 0.389007,-1.21806 -0.958364,-2.90052 -1.907151,-2.38141 -2.531258,-1.58237 -1.373448,1.75839 0.741346,2.13907 1.24706,2.38674 2.331812,1.14213 z m 6.499116,-3.15316 c 0,-0.33259 -1.097953,-1.63984 -2.439904,-2.905 -2.897814,-2.73205 -2.82035,-1.78773 0.103316,1.25924 2.358867,2.45835 2.33662,2.44268 2.33662,1.64576 z m 33.647402,-1.39919 c 2.682589,-1.321 1.651877,-1.54718 -1.323009,-0.29035 -1.4236,0.60148 -2.111499,1.11139 -1.528661,1.13317 0.582839,0.0217 1.866082,-0.35747 2.85167,-0.84282 z m -3.322544,-4.69266 c 1.678112,-0.33051 -0.216579,-0.48245 -6.589612,-0.52836 -5.40378,-0.0389 -9.08902,0.15754 -9.308861,0.49623 -0.446147,0.68741 12.439481,0.71347 15.898473,0.0322 z m -27.690002,-7.127 c -0.809647,-1.74339 -1.635097,-4.1405 -1.834324,-5.32688 -0.375871,-2.23836 -1.38937,-2.99822 -1.38937,-1.04166 0,2.10088 3.448346,9.53833 4.422401,9.53833 0.150388,0 -0.389042,-1.42641 -1.198707,-3.16979 z m 25.960241,1.20181 c 4.346914,0.57314 8.060294,0.89271 8.251984,0.71017 0.19167,-0.18254 -1.19742,-0.50398 -3.086842,-0.71431 -1.889472,-0.21037 -4.495284,-0.6035 -5.790704,-0.87364 -3.623062,-0.75554 -9.527793,-0.6084 -11.795567,0.29389 -3.036755,1.20828 -2.474349,1.39507 1.237846,0.41115 3.018806,-0.80015 3.90886,-0.7864 11.183283,0.17274 z m 16.695934,-4.96452 c -0.13488,-0.1121 -2.36513,-0.33891 -4.95602,-0.50397 -2.72467,-0.17362 -4.21417,-0.10438 -3.53299,0.1644 1.1287,0.44525 8.99497,0.75991 8.48901,0.33957 z m -34.285165,-1.89891 c -1.037242,-3.89521 -3.098522,-9.67247 -3.451057,-9.67247 -0.235166,0 -0.196892,0.6939 0.08512,1.54198 2.403847,7.23126 3.093413,9.11176 3.34123,9.11176 0.157409,0 0.168515,-0.44154 0.0247,-0.98127 z m 21.674328,-0.18751 c -4.01434,-1.52207 -8.365867,-2.27714 -10.710128,-1.85834 -2.896286,0.51741 -2.360317,1.08839 0.846826,0.90213 1.538505,-0.0894 4.652128,0.31803 6.919143,0.90532 5.438893,1.4089 6.577686,1.42862 2.944159,0.0509 z m 30.263417,-3.25696 c 2.36333,-1.19898 1.90818,-1.59565 -2.36135,-2.05789 -2.81532,-0.30485 -3.25589,-0.20947 -3.92708,0.85006 -0.41581,0.65639 -0.59887,1.43546 -0.40688,1.73132 0.5702,0.87853 4.54429,0.56781 6.69531,-0.52349 z m -9.73088,-1.79026 c 1.25329,-0.33137 2.04821,-0.79798 1.76649,-1.03691 -0.2817,-0.2389 -4.02558,-1.14746 -8.31966,-2.01901 -7.49538,-1.52127 -7.88976,-1.54725 -9.86655,-0.64956 -1.610913,0.7315 -2.995235,0.85966 -6.360037,0.58882 -3.597647,-0.2896 -4.752539,-0.15597 -7.062403,0.81702 -1.518797,0.63975 -2.761433,1.31003 -2.761433,1.48948 0,0.17946 0.86117,-0.11734 1.913687,-0.65938 1.419685,-0.73121 3.357778,-0.99715 7.507621,-1.03019 3.076658,-0.0245 6.263135,-0.31667 7.081125,-0.64923 1.64991,-0.67081 5.00169,0.29497 8.81735,2.54061 2.3042,1.35612 3.93929,1.49267 7.28381,0.60835 z m 28.58618,-2.51335 c 1.71004,-0.48359 3.00645,-0.97701 2.88093,-1.09655 -0.30419,-0.28965 -14.70779,1.32244 -15.09299,1.68923 -0.72775,0.69305 9.40447,0.20129 12.21206,-0.59268 z m -13.49433,-2.41345 c 0,-0.77885 -0.56993,-1.13752 -2.20815,-1.38974 -1.21446,-0.18695 -3.2046,-0.98713 -4.42252,-1.77812 -1.76178,-1.14418 -2.63147,-1.36364 -4.25472,-1.07367 -1.79197,0.32011 -9.65094,-0.37797 -13.8444,-1.22975 -0.80898,-0.16432 -1.31855,-0.15373 -1.13244,0.0235 0.52047,0.49558 16.25077,4.81997 20.56272,5.65284 5.1753,0.99967 5.29951,0.99485 5.29951,-0.2051 z m -61.752572,-3.67414 c -0.756868,-1.89872 -1.182895,-2.4256 -1.441828,-1.78305 -0.595681,1.47823 0.230657,4.36895 1.152618,4.03206 0.441754,-0.16144 0.803189,-0.006 0.803189,0.34307 0,0.35014 0.126021,0.51654 0.280161,0.36979 0.15406,-0.14676 -0.203267,-1.47957 -0.79414,-2.96187 z m 64.460532,0.4546 c 2.00905,-0.90784 2.94104,-2.4202 0.97224,-1.57762 -0.56677,0.24252 -2.75282,0.59864 -4.85789,0.79133 -3.45672,0.31643 -3.68484,0.41185 -2.35532,0.98527 2.09087,0.9018 3.93507,0.843 6.24097,-0.19898 z M 87.346748,133.9104 c -0.209308,-1.50262 -0.909899,-4.08895 -1.55688,-5.7474 l -1.176253,-3.01537 0.306573,2.76405 c 0.305907,2.75822 2.046508,8.73076 2.544417,8.73076 0.144558,0 0.09154,-1.22939 -0.117868,-2.73204 z m -9.822652,-1.92699 c 0.02274,-0.24953 -0.223585,-0.29768 -0.547442,-0.10717 -0.323869,0.19059 -0.570217,0.89938 -0.547454,1.57508 0.03985,1.18445 0.05961,1.1883 0.547454,0.10716 0.27832,-0.61682 0.524679,-1.3256 0.547442,-1.5751 z m 27.064734,-3.53402 c 0.4512,-0.13435 0.67574,-0.38191 0.49898,-0.55022 -0.44137,-0.4203 -5.1467,0.96336 -5.1467,1.51347 0,0.24354 0.86119,0.18139 1.91371,-0.13816 1.05255,-0.31952 2.28286,-0.69081 2.73401,-0.82512 z m 9.39985,-3.28869 c -0.15437,-0.14706 -2.19998,-0.52649 -4.54581,-0.84329 -3.48635,-0.47086 -4.55505,-0.42556 -5.85298,0.24806 -1.50825,0.78278 -1.41076,0.80884 1.94512,0.51982 1.94315,-0.1674 4.59294,-0.0738 5.88833,0.20792 2.2529,0.48993 3.1693,0.44261 2.56534,-0.13245 z m -17.830963,-6.1549 c -0.215499,-1.09377 -0.644768,-1.98868 -0.953937,-1.98868 -0.727855,0 -0.708757,0.55363 0.09498,2.74858 0.840474,2.29594 1.369078,1.82842 0.859148,-0.7599 z m 32.163073,-5.5526 c -2.70648,-3.41358 -7.25842,-5.96838 -10.63403,-5.96838 -2.70576,0 -1.99189,0.575 1.48085,1.19281 3.4844,0.61988 5.75315,2.10549 8.64405,5.66021 1.24094,1.52591 2.40424,2.63354 2.58504,2.46137 0.18084,-0.17219 -0.75335,-1.67789 -2.07591,-3.34601 z m -28.18917,-4.58188 c -0.231081,-4.34138 -0.566341,-6.78682 -0.840127,-6.12783 -0.445337,1.07189 -0.1497,9.88197 0.419912,12.51744 0.627125,2.9012 0.786045,0.48449 0.420215,-6.38961 z m 19.38382,6.72009 c -1.96215,-1.30873 -5.24133,-2.50412 -6.7483,-2.46003 -0.84799,0.0248 -0.25749,0.3957 1.60038,1.00519 1.6193,0.5312 3.47411,1.26283 4.12183,1.62579 1.73229,0.97075 2.53684,0.83672 1.02609,-0.17095 z m -10.37601,-14.07085 c 0.11963,-2.270809 -0.0121,-4.12875 -0.29166,-4.12875 -0.66604,0 -1.24178,3.41914 -1.22744,7.2894 0.0171,4.63019 1.24347,2.07875 1.5191,-3.16065 z m 27.05965,-2.377632 c -0.87744,-1.351968 -13.32286,-2.50608 -14.10069,-1.307594 -0.15822,0.243963 0.55475,0.361088 1.58456,0.260291 1.02981,-0.100793 3.85969,0.170925 6.28865,0.603844 5.52053,0.983949 6.62953,1.062932 6.22748,0.443459 z m 12.32075,-1.751118 c -0.20018,-0.308417 -0.87953,-0.560742 -1.5097,-0.560742 -0.63017,0 -4.07991,-1.028145 -7.66611,-2.284755 -5.42726,-1.901725 -6.93221,-2.21876 -8.97685,-1.89101 -4.59979,0.737314 -5.00895,1.406945 -0.65912,1.078719 3.86741,-0.291835 4.55516,-0.158349 10.01016,1.942729 5.58728,2.152001 9.59161,2.932271 8.80162,1.715059 z m 13.83755,-2.666081 c 0,-0.528899 -8.06271,-0.496752 -8.62048,0.03434 -0.22457,0.213851 1.6232,0.388816 4.10609,0.388816 2.48292,0 4.51439,-0.190434 4.51439,-0.423172 z m -41.51272,-1.819723 c 0.20017,-0.3084 0.0927,-0.560726 -0.23873,-0.560726 -0.33636,0 -0.12434,-1.062821 0.48012,-2.405424 1.26394,-2.807882 2.194,-6.554543 1.42119,-5.725067 -0.2873,0.308401 -1.1474,2.378412 -1.91129,4.600035 -0.83639,2.4325 -1.76587,4.135285 -2.33656,4.280551 -0.52123,0.132753 -0.23466,0.270531 0.63682,0.306303 0.8715,0.03576 1.74832,-0.187271 1.94845,-0.495672 z m 32.92897,-0.752304 c -0.23765,-0.589678 -6.86798,-2.905943 -10.25888,-3.583861 -1.93651,-0.387145 3.43803,2.12871 6.32996,2.963084 1.70022,0.49055 3.09134,1.141265 3.09134,1.445963 0,0.304712 0.25342,0.404888 0.56313,0.22261 0.30972,-0.182276 0.43319,-0.653781 0.27445,-1.047796 z M 122.9056,81.971896 c 0,-0.770995 -0.26498,-1.401803 -0.58884,-1.401803 -0.32386,0 -0.58884,0.630808 -0.58884,1.401803 0,0.770987 0.26498,1.401825 0.58884,1.401825 0.32386,0 0.58884,-0.630838 0.58884,-1.401825 z m 28.2915,0.592301 c -0.99509,-1.141755 -10.62652,-4.038268 -10.62652,-3.195761 0,0.206549 1.36174,0.683574 3.0261,1.060054 1.66432,0.376478 3.98286,1.160234 5.15227,1.741693 2.6564,1.320807 3.35366,1.433035 2.44815,0.394014 z m -18.56766,-15.35031 c -0.48121,-0.458238 -2.01724,3.562886 -2.35002,6.152106 -0.26616,2.07104 -0.0914,1.812121 1.16187,-1.720392 0.81137,-2.287096 1.34604,-4.281367 1.18815,-4.431714 z m 2.88894,-2.289972 c -0.3924,-0.382963 -1.88557,3.463832 -2.26438,5.833515 -0.2662,1.66562 0.008,1.232668 1.06889,-1.68218 0.78505,-2.158781 1.32304,-4.026883 1.19549,-4.151335 z m 9.43892,-5.941692 c 0.23876,-1.541994 0.23591,-2.617465 -0.007,-2.389936 -0.46921,0.440708 -2.00662,7.426085 -1.9452,8.838266 0.0576,1.324651 1.47122,-3.346356 1.95153,-6.44833 z m 2.88976,-3.65676 0.36317,-1.95048 -0.79578,1.682179 c -0.43769,0.925188 -0.94472,2.817639 -1.12676,4.205422 l -0.33099,2.523258 0.76359,-2.254957 c 0.41998,-1.240218 0.92702,-3.132653 1.12677,-4.205422 z m 22.45957,1.694228 c 0.21431,-0.330191 -0.43718,-0.563873 -1.58454,-0.568387 -1.07165,-0.0048 -2.61091,-0.133992 -3.42053,-0.288279 -0.93133,-0.177543 -0.71497,0.01591 0.58881,0.525713 2.49087,0.974588 3.92861,1.082338 4.41626,0.330953 z M 157.0579,55.337528 c 0.34664,-0.616804 0.49777,-1.121457 0.33582,-1.121457 -0.16189,0 -0.57802,0.504653 -0.92467,1.121457 -0.34666,0.616785 -0.49779,1.121437 -0.33583,1.121437 0.16189,0 0.57803,-0.504652 0.92468,-1.121437 z m 14.58413,-0.400656 c -0.88481,-0.127952 -2.47466,-0.130497 -3.53298,-0.0064 -1.05835,0.124767 -0.33442,0.229468 1.60874,0.232615 1.94317,0.0032 2.80906,-0.09902 1.92424,-0.226895 z"
       id="path246"
       inkscape:highlight-color="#f6d171" />
  </g>
</svg>
