<?xml version="1.0" encoding="UTF-8" standalone="no"?>
<!-- Created with Inkscape (http://www.inkscape.org/) -->

<svg
   width="210mm"
   height="297mm"
   viewBox="0 0 210 297"
   version="1.1"
   id="svg14242"
   inkscape:version="1.2.2 (732a01da63, 2022-12-09)"
   sodipodi:docname="medaillon2.svg"
   inkscape:export-filename="medaillon.png"
   inkscape:export-xdpi="96"
   inkscape:export-ydpi="96"
   xmlns:inkscape="http://www.inkscape.org/namespaces/inkscape"
   xmlns:sodipodi="http://sodipodi.sourceforge.net/DTD/sodipodi-0.dtd"
   xmlns:xlink="http://www.w3.org/1999/xlink"
   xmlns="http://www.w3.org/2000/svg"
   xmlns:svg="http://www.w3.org/2000/svg">
  <sodipodi:namedview
     id="namedview14244"
     pagecolor="#505050"
     bordercolor="#eeeeee"
     borderopacity="1"
     inkscape:showpageshadow="0"
     inkscape:pageopacity="0"
     inkscape:pagecheckerboard="0"
     inkscape:deskcolor="#505050"
     inkscape:document-units="mm"
     showgrid="false"
     inkscape:zoom="0.2102413"
     inkscape:cx="168.8536"
     inkscape:cy="561.25984"
     inkscape:window-width="865"
     inkscape:window-height="487"
     inkscape:window-x="1550"
     inkscape:window-y="56"
     inkscape:window-maximized="0"
     inkscape:current-layer="layer1" />
  <defs
     id="defs14239">
    <radialGradient
       inkscape:collect="always"
       xlink:href="#linearGradient1172"
       id="radialGradient1176"
       cx="210.49216"
       cy="294.01968"
       fx="210.49216"
       fy="294.01968"
       r="209.73608"
       gradientTransform="matrix(0.40556537,0,0,0.59051972,13.422009,-23.235986)"
       gradientUnits="userSpaceOnUse" />
    <linearGradient
       inkscape:collect="always"
       id="linearGradient1172">
      <stop
         style="stop-color:#000000;stop-opacity:1;"
         offset="0"
         id="stop1168" />
      <stop
         style="stop-color:#000000;stop-opacity:0;"
         offset="1"
         id="stop1170" />
    </linearGradient>
    <filter
       inkscape:label="Tinfoil"
       inkscape:menu-tooltip="Metallic foil effect combining two lighting types and variable crumple"
       inkscape:menu="Bumps"
       height="1.0171264"
       width="1.0243922"
       x="-0.0121961"
       y="-0.0085632186"
       style="color-interpolation-filters:sRGB;"
       id="filter19301">
      <feGaussianBlur
         in="SourceGraphic"
         result="result14"
         stdDeviation="0.5"
         id="feGaussianBlur19275" />
      <feTurbulence
         type="fractalNoise"
         seed="25"
         baseFrequency="0.004 0.008"
         numOctaves="1"
         result="result5"
         id="feTurbulence19277" />
      <feDisplacementMap
         scale="100"
         xChannelSelector="R"
         in="result5"
         result="result8"
         yChannelSelector="B"
         in2="result14"
         id="feDisplacementMap19279" />
      <feGaussianBlur
         stdDeviation="0.5"
         result="result17"
         id="feGaussianBlur19281" />
      <feSpecularLighting
         specularExponent="40"
         specularConstant="1"
         surfaceScale="12"
         result="result2"
         lighting-color="rgb(254,218,71)"
         in="result17"
         id="feSpecularLighting19285">
        <feDistantLight
           elevation="70"
           azimuth="225"
           id="feDistantLight19283" />
      </feSpecularLighting>
      <feDiffuseLighting
         diffuseConstant="0.5"
         surfaceScale="50"
         in="result17"
         lighting-color="rgb(116,245,254)"
         id="feDiffuseLighting19289">
        <feDistantLight
           elevation="55"
           azimuth="225"
           id="feDistantLight19287" />
      </feDiffuseLighting>
      <feBlend
         in2="SourceGraphic"
         result="result9"
         mode="screen"
         id="feBlend19291" />
      <feComposite
         k3="1"
         k2="1"
         in="result2"
         result="result11"
         in2="result9"
         operator="arithmetic"
         id="feComposite19293" />
      <feComposite
         in2="SourceGraphic"
         operator="in"
         result="result16"
         id="feComposite19295" />
      <feBlend
         mode="multiply"
         in2="result16"
         id="feBlend19297" />
      <feDisplacementMap
         in2="result5"
         xChannelSelector="R"
         scale="0"
         id="feDisplacementMap19299" />
    </filter>
  </defs>
  <g
     inkscape:label="Calque 1"
     inkscape:groupmode="layer"
     id="layer1">
    <rect
       style="opacity:1;fill:#f9f9f9;fill-opacity:0.861386;stroke:#f2f2f2;stroke-width:0.264999;filter:url(#filter19301)"
       id="rect14778"
       width="207.6483"
       height="295.74155"
       x="2.5169489"
       y="2.5169489"
       transform="matrix(1.4913221,0,0,1.0667724,-32.741383,-5.0078431)" />
    <path
       style="fill:#f6d171;fill-opacity:1;stroke:url(#radialGradient1176);stroke-width:0.550674;stroke-opacity:1;image-rendering:auto"
       d="m 21.682054,273.4872 c -4.522998,-1.11442 -7.32064,-5.04035 -7.62937,-10.70623 -0.16938,-3.10877 0.01534,-4.26612 1.009761,-6.33126 1.920978,-3.98883 5.471554,-7.76711 10.907744,-11.60732 6.954811,-4.91301 9.814792,-7.49172 12.020314,-10.83816 3.320034,-5.03752 4.814053,-14.74894 2.469197,-16.05033 -0.594835,-0.33013 -1.081513,-0.88694 -1.081513,-1.23732 0,-0.35038 -0.363055,-1.05312 -0.806782,-1.5616 -1.879268,-2.15347 2.567532,-3.91888 9.892004,-3.92717 2.758784,-0.003 2.896005,-0.0763 3.650089,-1.94794 1.156346,-2.86999 0.988468,-4.51643 -0.56835,-5.57424 -0.743539,-0.50522 -1.332671,-1.35439 -1.309186,-1.88703 0.02666,-0.60445 0.14669,-0.70053 0.319229,-0.25566 0.152057,0.39202 0.984579,1.09246 1.849945,1.55655 2.36386,1.26764 1.97429,-0.0204 -0.892684,-2.95146 -2.89156,-2.95621 -2.818228,-3.86373 0.109909,-1.36068 1.114041,0.95228 2.131224,1.6218 2.260396,1.48786 0.129223,-0.13403 -0.514698,-1.45494 -1.430836,-2.93548 -2.576451,-4.16371 -3.444886,-6.78261 -3.863429,-11.65056 -0.212147,-2.46741 -0.572256,-4.92785 -0.800235,-5.46758 -0.816885,-1.93402 0.778469,-0.96604 2.166843,1.31474 1.7119,2.81221 2.36052,2.57248 0.74107,-0.27391 -1.288004,-2.26382 -1.226277,-3.44032 0.421607,-8.03591 0.740444,-2.06495 1.219703,-2.75388 1.624067,-2.33453 0.404365,0.41932 0.507326,-0.12293 0.348863,-1.8372 -0.274319,-2.96806 1.557246,-7.7423 2.223851,-5.79672 0.615635,1.79678 1.535433,3.65802 1.715499,3.47131 0.09121,-0.0946 -0.103465,-1.67432 -0.432783,-3.51041 -0.596507,-3.32639 -0.59056,-3.35452 1.653187,-7.81821 1.813295,-3.60731 2.213644,-4.12191 2.055623,-2.64219 -0.107904,1.01069 0.0219,1.7622 0.288558,1.67003 0.266638,-0.0922 0.546091,-1.72281 0.621017,-3.62364 0.112821,-2.86159 0.478708,-4.0315 2.127452,-6.80158 1.095172,-1.84001 1.991227,-3.68935 1.991227,-4.10961 0,-1.32031 3.677263,-6.49447 5.97873,-8.41245 1.311022,-1.09259 2.659938,-2.93334 3.325738,-4.5383 0.616059,-1.48514 1.653703,-3.13547 2.305876,-3.66747 0.652173,-0.53199 1.363208,-1.7214 1.580085,-2.6431 0.216846,-0.92173 1.897328,-4.05049 3.73438,-6.95282 l 3.340113,-5.27694 0.367235,2.19267 c 0.479307,2.86194 1.602076,5.73952 1.907885,4.8898 0.132091,-0.36714 -0.01719,-1.6289 -0.331807,-2.80389 -0.961115,-3.58923 -0.698242,-5.18099 1.328434,-8.04412 2.07779,-2.93534 5.360389,-6.148937 6.280951,-6.148937 0.318612,0 1.072108,-0.649727 1.674462,-1.443811 0.602336,-0.794115 1.641181,-1.659114 2.308527,-1.922245 0.917503,-0.361759 1.152113,-0.810508 0.962203,-1.840694 -0.41833,-2.269394 2.20287,-6.489493 7.91192,-12.73814 l 5.37972,-5.888173 -0.29588,2.310605 c -0.18102,1.413845 -0.062,2.460473 0.3067,2.696783 0.41062,0.263175 0.60256,-0.462734 0.60256,-2.27886 0,-2.500834 0.18698,-2.852867 3.03443,-5.712984 1.86141,-1.869662 3.17621,-2.81009 3.40112,-2.432703 0.21871,0.367027 0.76474,-0.112855 1.35338,-1.189644 0.54272,-0.992676 2.92718,-3.541725 5.29884,-5.664547 l 4.31209,-3.859677 -0.38796,3.220306 c -0.21339,1.771155 -0.93953,4.769757 -1.61363,6.663569 -0.67411,1.893791 -1.40269,3.947962 -1.61906,4.564823 l -0.39346,1.121548 0.80805,-1.121548 c 1.27215,-1.765861 3.47346,-8.657759 3.88666,-12.16863 0.4864,-4.132642 1.98999,-6.336615 5.80774,-8.512915 1.68802,-0.962269 3.86181,-2.367464 4.83064,-3.122655 1.56437,-1.219435 1.71627,-1.250942 1.3576,-0.281646 -0.22213,0.6003 -0.6617,2.353761 -0.9768,3.896588 -0.31511,1.542823 -1.04756,3.777825 -1.62766,4.966676 -0.58007,1.188852 -0.78997,1.991857 -0.46639,1.784478 0.84737,-0.54309 2.53656,-4.178359 3.00617,-6.46951 0.94795,-4.6248 1.90531,-6.091117 5.67289,-8.688533 2.016,-1.389874 3.82016,-2.527031 4.00926,-2.527031 0.18913,0 -0.16474,1.033849 -0.78637,2.297458 -0.62162,1.263595 -1.02403,2.407572 -0.89422,2.542178 0.12982,0.134643 0.93762,-1.212059 1.79514,-2.992575 1.34472,-2.792018 2.1513,-3.639724 5.86368,-6.162844 2.36749,-1.609045 4.39299,-2.833791 4.50111,-2.721661 0.10813,0.112067 -0.15553,0.921289 -0.5859,1.798131 -1.56854,3.195698 -1.49183,4.319884 0.10315,1.511764 2.14617,-3.778559 3.48998,-4.803029 9.02418,-6.87969 5.17239,-1.940894 6.85328,-2.205484 4.01276,-0.631662 -1.04096,0.576743 -2.74434,1.990903 -3.78529,3.142572 -1.8294,2.024014 -1.77104,2.002207 1.74708,-0.652832 7.16761,-5.409164 8.64078,-6.46099 8.80627,-6.287468 0.40805,0.427857 -0.76897,5.130247 -1.4647,5.851755 -0.42392,0.43962 -1.66893,0.83432 -2.76667,0.877113 -1.09778,0.04274 -1.99594,0.289275 -1.99594,0.54773 0,0.675727 3.11853,0.5793 4.40789,-0.136233 1.58266,-0.878384 1.6651,-0.415554 0.25311,1.420856 -1.02045,1.327114 -2.04341,1.789133 -5.78919,2.614567 l -4.54972,1.002597 3.24452,-0.146886 c 1.78448,-0.08075 3.73118,-0.341987 4.32603,-0.580507 0.92744,-0.371906 0.89967,-0.267245 -0.19511,0.734827 -1.12293,1.027856 -1.15696,1.168505 -0.28265,1.168505 0.86735,0 0.82048,0.179863 -0.36791,1.412284 -1.38357,1.434781 -5.21065,2.42361 -9.96941,2.575863 l -2.16303,0.06913 2.69791,0.467504 c 1.5446,0.267672 3.625,0.24534 4.86678,-0.05228 3.33564,-0.799381 3.36853,-0.719791 0.817,1.97631 -1.3135,1.387935 -2.67851,2.523501 -3.03332,2.523501 -0.35483,0 -1.15469,0.895602 -1.77745,1.990219 -1.14117,2.005765 -3.83706,3.617564 -6.05072,3.617564 -0.63947,0 -1.94811,0.693958 -2.90806,1.542141 -0.95998,0.848166 -2.20878,1.862143 -2.77518,2.253266 -0.87317,0.602987 -0.47734,0.684405 2.60286,0.53535 2.93918,-0.142275 3.89401,-0.430435 5.00196,-1.509857 0.75315,-0.733731 1.36936,-1.134266 1.36936,-0.890052 0,0.244209 -1.66487,2.180812 -3.69969,4.303572 -3.47089,3.620887 -3.84872,3.859583 -6.10947,3.859583 -1.32535,0 -4.46646,-0.752076 -6.98018,-1.671268 -2.51375,-0.919205 -5.30044,-1.648612 -6.19271,-1.620906 -1.38576,0.04307 -1.2975,0.117154 0.60537,0.507975 1.22517,0.251683 4.14525,1.461009 6.48903,2.687389 2.3438,1.226383 5.25893,2.396492 6.47805,2.600232 1.90098,0.317699 2.45924,0.158795 3.92047,-1.116333 2.09713,-1.82997 2.2512,-0.879638 0.2168,1.337162 -2.15675,2.350075 -8.4699,4.242405 -12.801,3.83704 -3.11066,-0.291153 -3.19967,-0.266242 -1.66418,0.465708 2.17932,1.038838 5.37128,1.017108 7.36141,-0.05007 l 1.62975,-0.874 -1.25107,2.328474 c -1.97178,3.669941 -3.11177,4.189313 -9.1424,4.165309 l -5.23001,-0.02083 2.23465,1.042609 c 2.25854,1.053748 5.98162,1.115744 8.11068,0.13496 0.86986,-0.400708 0.93173,-0.317668 0.44806,0.601507 -0.30866,0.586499 -1.41265,2.022536 -2.45336,3.19117 -1.5568,1.748156 -2.13944,2.060433 -3.28703,1.761734 -1.9457,-0.506419 -1.74221,0.300705 0.699,2.772743 3.79483,3.842792 8.21921,3.19925 9.24997,-1.345372 l 0.44208,-1.949213 0.0554,1.848009 c 0.067,2.234237 -1.84417,4.46218 -4.25685,4.962571 -1.9586,0.406217 -1.98951,0.548714 -0.41937,1.933886 l 1.21669,1.07337 -1.60729,1.380098 c -1.65448,1.420645 -5.45865,2.541127 -8.62745,2.541127 -0.99564,0 -2.123,0.403848 -2.52318,0.903891 -0.39786,0.497133 -1.21851,1.112022 -1.82365,1.366393 -0.82054,0.344899 -0.46574,0.471529 1.39537,0.498069 1.7164,0.0245 2.92494,-0.314678 3.87057,-1.086025 1.47992,-1.207231 2.85383,-1.51385 2.25103,-0.50238 -0.54833,0.920046 -4.6295,2.719035 -6.2005,2.733175 -1.01897,0.01 -1.52504,0.44237 -1.98139,1.69605 -0.55602,1.52763 -0.50433,1.70624 0.5574,1.9264 5.15208,1.06831 8.68444,0.56125 10.3063,-1.47955 0.56359,-0.70919 0.91326,-0.92624 0.77702,-0.48236 -0.66858,2.17835 -5.61989,3.95955 -11.00659,3.95955 -1.26377,0 -2.9381,0.34451 -3.72074,0.76559 l -1.423,0.7656 2.57786,0.77656 c 6.06592,1.82726 11.67279,0.50879 14.45264,-3.3986 1.99654,-2.80638 1.68568,-1.19816 -0.38371,1.98535 -2.5106,3.86215 -5.54173,5.35327 -10.73151,5.27925 -5.92348,-0.0846 -5.10199,0.15503 -14.61683,-4.26022 -2.26802,-1.05245 -4.31519,-1.91353 -4.54922,-1.91353 -0.68316,0 5.20624,4.21559 7.78919,5.57544 1.48001,0.7792 2.84183,1.11772 3.6501,0.90733 1.66503,-0.43338 1.63193,0.29904 -0.11085,2.44664 -1.00274,1.23583 -1.87039,1.72538 -3.05795,1.72538 -1.62375,0 -1.63778,0.0232 -0.67928,1.12158 0.61246,0.70176 1.66555,1.12153 2.81371,1.12153 1.55692,0 1.94774,-0.27611 2.57953,-1.82253 0.62488,-1.52945 0.80559,-1.66014 1.12382,-0.81264 0.47676,1.26966 -1.44912,3.51411 -3.459,4.03124 -0.78968,0.20316 -1.92244,0.82057 -2.51729,1.37199 -1.60928,1.49183 -3.18039,1.69763 -6.62352,0.8676 -1.70562,-0.41115 -3.17676,-0.66914 -3.26922,-0.57324 -0.0925,0.0959 0.74637,0.76039 1.86401,1.47672 2.06957,1.32644 5.06054,1.68683 6.85791,0.82634 0.82347,-0.39421 0.71066,0.10337 -0.6633,2.92598 -0.94444,1.9402 -2.12545,3.55564 -2.74966,3.76113 -1.65931,0.5461 -1.32823,1.57045 1.05401,3.26111 2.85431,2.02564 5.93948,0.49784 5.97962,-2.96116 0.0137,-1.22629 0.0903,-1.28606 0.5636,-0.44346 0.67703,1.20506 -0.0111,2.68611 -2.00145,4.31 -2.18212,1.78002 -5.58698,1.52824 -10.71246,-0.79211 -2.36112,-1.06893 -4.36331,-1.8705 -4.44933,-1.78132 -0.4281,0.44396 5.26538,4.31508 6.50259,4.42125 1.66491,0.14296 1.72822,0.45421 0.56641,2.78415 -1.08831,2.18245 -0.32517,2.87959 2.65764,2.42785 2.87777,-0.43586 4.45948,-1.66707 5.45442,-4.24581 1.01552,-2.63194 1.40213,-2.78924 1.40213,-0.57045 0,0.9255 -0.58209,2.35669 -1.33681,3.28683 -0.73525,0.90615 -1.20222,1.78713 -1.03769,1.95774 0.59385,0.61579 -0.86391,2.51067 -2.45846,3.1956 -1.41696,0.60864 -1.55297,0.84886 -1.04164,1.83971 0.54646,1.05885 0.93862,1.11574 5.53284,0.80276 5.41887,-0.36913 11.68681,-2.10424 12.84949,-3.55708 0.42035,-0.52527 0.74075,-2.20274 0.74075,-3.87851 0,-3.50111 -1.3917,-5.44443 -4.51752,-6.30805 -1.58499,-0.43793 -1.70648,-0.55568 -0.61965,-0.60059 3.11345,-0.12862 5.98185,3.01502 6.78083,7.43154 l 0.38449,2.12543 1.87101,-1.86444 c 2.35676,-2.34844 3.29132,-4.19593 3.95306,-7.8144 0.84363,-4.61314 -1.17125,-7.84372 -5.56758,-8.92693 l -1.74391,-0.42969 2.03577,-0.0575 c 1.60814,-0.0453 2.46007,0.34613 4.05568,1.86359 1.9837,1.88661 2.01985,1.99527 2.01985,6.06955 0,4.71864 -0.89334,6.58295 -5.55153,11.58526 -1.40788,1.51189 -3.16811,3.44476 -3.91165,4.2953 -2.52733,2.89108 -6.47955,4.27561 -13.13945,4.60296 -5.56991,0.27381 -6.14779,0.41252 -8.31423,1.99607 -1.88239,1.37599 -3.08004,1.76903 -6.2543,2.05259 -3.65875,0.32684 -3.82244,0.39614 -2.40384,1.01774 1.88728,0.82696 4.92328,0.8608 6.48939,0.0724 0.93661,-0.47152 0.86704,-0.29738 -0.33609,0.84117 -1.76736,1.67248 -4.57572,1.90163 -7.54398,0.61549 -1.76821,-0.76617 -1.95982,-0.74372 -2.90499,0.3403 -0.55653,0.63834 -2.1069,1.77864 -3.44527,2.53401 -2.21476,1.25007 -2.06381,1.3844 0.4015,0.35731 0.95447,-0.39767 -0.91317,2.32419 -3.81314,5.55707 -1.441286,1.60679 -3.625763,2.45774 -4.95319,1.92952 -1.15397,-0.45925 -2.231395,0.90573 -3.266879,4.13867 -1.617912,5.05152 -4.60738,9.54419 -7.13951,10.72956 -0.234028,0.1096 -1.155559,1.06849 -2.047813,2.13098 l -1.622252,1.93175 1.892635,-1.41609 c 1.040933,-0.77884 2.174228,-1.58789 2.518429,-1.79789 0.344169,-0.20998 -0.223934,1.40688 -1.262473,3.59308 -2.043193,4.30088 -3.708782,5.56025 -7.353893,5.56025 -2.265471,0 -4.286842,1.40135 -3.144646,2.1801 1.173489,0.80005 -2.137388,4.86266 -4.334229,5.31829 -2.664733,0.5527 -6.24917,0.4144 -7.759804,-0.29939 -0.758788,-0.35851 -1.559055,-0.46577 -1.778376,-0.23833 -0.411599,0.42684 0.08691,0.8175 3.864763,3.02875 1.906523,1.1159 1.999474,1.24928 0.664673,0.9538 -0.853504,-0.18893 -2.483669,-1.12009 -3.622606,-2.06927 -1.138918,-0.94913 -2.419517,-1.58694 -2.845772,-1.4173 -0.724392,0.28827 -3.065262,6.45388 -3.065262,8.07365 0,0.40273 0.347633,0.73223 0.772508,0.73223 0.424875,0 1.136667,0.37765 1.581759,0.83922 0.718491,0.74511 0.718381,1.02812 -8.12e-4,2.52351 -0.44563,0.92636 -1.035744,1.6843 -1.311379,1.6843 -0.754729,0 -0.585778,7.12306 0.257058,10.83789 1.357532,5.98347 3.908909,8.99523 14.688871,17.33959 8.690839,6.72723 10.977277,9.74384 11.480495,15.14669 0.368121,3.9526 -0.798776,7.50539 -3.36513,10.24554 l -2.202674,2.35185 -20.501958,0.35849 c -24.674813,0.43148 -33.538676,0.3855 -35.858085,-0.18597 z m 56.244731,-4.36769 c 2.28841,-2.14763 3.403848,-6.37466 2.549965,-9.66313 -0.644168,-2.48088 -3.623501,-6.68782 -5.768387,-8.14525 -1.342303,-0.91209 -1.256757,-0.69817 0.690817,1.72715 3.140217,3.91053 4.149288,6.22027 4.149288,9.49744 0,3.95401 -1.227901,6.14321 -4.063583,7.24499 -2.176961,0.84579 -2.202928,0.88051 -0.452413,0.60478 1.021412,-0.16093 2.323858,-0.7306 2.894313,-1.26598 z m -57.474977,0.51284 c 0,-0.2606 -0.487706,-0.93156 -1.083784,-1.49098 -2.332927,-2.18945 -2.728725,-8.72702 -0.770439,-12.7254 0.499064,-1.01898 1.770468,-2.98827 2.825342,-4.37619 l 1.917955,-2.52349 -2.289716,2.2431 c -3.029409,2.96777 -4.277391,5.14863 -4.90261,8.56749 -0.602436,3.29429 -0.12232,5.51491 1.865874,8.63058 1.270576,1.99106 2.437378,2.79286 2.437378,1.67489 z m 48.110608,-7.28169 c 0.781796,-2.919 0.689309,-4.40899 -0.298126,-4.80191 -1.945975,-0.77439 -2.118788,-0.41112 -2.118788,4.45446 0,4.62799 0.03249,4.75329 0.932858,3.60017 0.513058,-0.65708 1.18089,-2.12079 1.484056,-3.25272 z m -2.878546,-1.71733 c -0.265335,-2.79327 -1.035453,-4.58288 -1.683128,-3.91123 -0.14853,0.15406 -0.03095,1.145 0.261368,2.20203 0.292328,1.05702 0.546934,3.18529 0.565788,4.72947 0.03019,2.47181 0.100554,2.63992 0.588752,1.40565 0.304957,-0.77108 0.425211,-2.76274 0.26722,-4.42592 z m 8.294284,1.38836 c 0.01065,-1.43471 -0.298448,-0.98712 -0.743203,1.07481 -0.265015,1.22863 -0.214833,1.4555 0.186016,0.84118 0.301908,-0.46263 0.552641,-1.32483 0.557187,-1.91599 z m -43.82322,-2.00948 c 0.232012,0 0.583585,-1.63709 0.781261,-3.63799 0.197676,-2.00089 0.500656,-4.01969 0.673286,-4.48622 0.231155,-0.62468 -0.06115,-0.84822 -1.109259,-0.84822 -1.597364,0 -2.305826,1.34581 -2.841344,5.39746 -0.386782,2.9264 0.06577,4.37423 1.223394,3.91355 0.467949,-0.18621 1.040634,-0.33858 1.272662,-0.33858 z m 5.437983,-1.60405 c 0,-0.88223 0.150066,-2.73979 0.333577,-4.12793 0.314679,-2.38078 0.254776,-2.53949 -1.05642,-2.79941 -1.163431,-0.23064 -1.482232,-0.001 -1.955833,1.40772 -0.311215,0.92581 -0.565853,2.90737 -0.565853,4.40347 0,2.64865 0.04278,2.7202 1.622273,2.7202 1.424411,0 1.622256,-0.19559 1.622256,-1.60405 z m 33.220302,-3.95002 c -0.277582,-0.26862 -1.080993,-0.66942 -1.785366,-0.8907 -0.941489,-0.29571 -1.21731,-0.20508 -1.041415,0.34211 0.13152,0.40942 0.829559,0.89946 1.55104,1.08906 1.496008,0.39311 2.013792,0.17373 1.275741,-0.54047 z m -4.560352,-0.61446 c 0,-0.30841 -0.243341,-0.56079 -0.540757,-0.56079 -0.297404,0 -0.540743,0.25238 -0.540743,0.56079 0,0.30843 0.243339,0.56079 0.540743,0.56079 0.297416,0 0.540757,-0.25236 0.540757,-0.56079 z m 3.783889,-4.20963 c -1.11913,-3.05251 -2.324792,-4.91355 -5.703748,-8.80414 -5.119857,-5.8951 -6.323569,-8.83581 -6.698488,-16.36491 -0.278855,-5.5995 -0.401025,-6.14344 -1.471823,-6.55231 -1.090099,-0.41622 -1.192018,-0.22884 -1.533184,2.81961 -0.423478,3.78381 0.485376,10.89461 1.880006,14.70913 0.927323,2.53633 7.511708,15.03759 7.920289,15.03759 0.728607,0 -0.219857,-2.18919 -3.051313,-7.04281 -4.228894,-7.24905 -5.439287,-11.24565 -5.679436,-18.753 l -0.188358,-5.88816 0.456327,5.32741 c 0.61852,7.22082 2.033199,11.49546 6.217177,18.78604 1.947034,3.39271 3.675395,6.61017 3.840805,7.14993 0.218814,0.71401 0.876433,0.98135 2.413923,0.98135 2.032156,0 2.093439,-0.0539 1.597823,-1.40573 z M 34.7203,245.77425 c 1.02541,-1.66235 2.12791,-3.19133 2.450008,-3.39777 1.022791,-0.65553 0.632466,-1.43069 -0.720422,-1.43069 -0.967149,0 -1.949383,0.88749 -3.785286,3.42023 -1.363574,1.88113 -2.479223,3.64758 -2.479223,3.92543 0,0.27788 0.600874,0.50523 1.335259,0.50523 1.024096,0 1.769779,-0.70439 3.199664,-3.02243 z m 4.70493,-0.12784 c 1.768306,-2.48232 2.087245,-3.25505 1.50412,-3.64435 -0.407016,-0.27174 -1.097286,-0.4294 -1.533932,-0.35034 -0.775913,0.14056 -4.884016,5.75924 -4.884016,6.67998 0,0.25575 0.600676,0.46501 1.334833,0.46501 0.994542,0 1.90692,-0.80313 3.578995,-3.1503 z m 14.8081,-1.87054 c 0.416994,-0.69968 -3.646149,-1.82214 -5.79489,-1.6008 -0.922238,0.095 -1.772631,0.47566 -1.889771,0.84593 -0.146387,0.46302 0.853751,0.73572 3.202882,0.87333 1.878731,0.10996 3.584007,0.24868 3.789517,0.3081 0.205509,0.0595 0.517027,-0.13261 0.692262,-0.42656 z m -12.762763,-6.61529 c 1.414878,-2.88073 2.774405,-7.80827 2.774405,-10.05558 0,-3.08941 -0.823153,-2.09519 -1.46062,1.76417 -0.32933,1.99385 -1.3327,5.14821 -2.229691,7.00973 -1.18987,2.46931 -1.42619,3.38458 -0.873922,3.38458 0.416337,0 1.221758,-0.94631 1.789828,-2.1029 z m 0.07068,-20.65434 c 0,-0.77139 0.88289,-0.86267 6.780191,-0.70099 5.285725,0.14502 6.889818,0.37032 7.277659,1.02243 0.387946,0.65231 0.640867,0.68779 1.148804,0.16102 1.141067,-1.18332 -2.07026,-1.95476 -8.447217,-2.02922 -5.844894,-0.0683 -8.847861,0.63698 -8.094544,1.90102 0.501607,0.84169 1.335107,0.62051 1.335107,-0.35426 z m -1.62226,-2.79124 c 0,-0.48088 -0.243337,-0.71831 -0.540756,-0.52769 -0.297404,0.19063 -0.540743,0.58403 -0.540743,0.87426 0,0.29024 0.243339,0.52769 0.540743,0.52769 0.297419,0 0.540756,-0.39342 0.540756,-0.87426 z m 13.884039,-1.17705 c -0.195697,-0.20295 -0.147153,-0.64458 0.107916,-0.98139 0.25502,-0.33679 1.378397,-3.5144 2.496378,-7.06128 2.46857,-7.83181 6.318067,-17.98857 10.520698,-27.75852 3.344,-7.77386 4.304936,-10.47488 3.391652,-9.53323 -0.299134,0.30842 -1.52486,2.95808 -2.723805,5.88817 -1.198946,2.93006 -3.671857,8.86028 -5.495358,13.17828 -3.742689,8.86255 -8.662616,22.72194 -8.662616,24.40248 0,0.7497 -0.363392,1.11291 -1.113429,1.11291 -0.612387,0 -0.963026,0.25236 -0.779222,0.56076 0.18382,0.30845 0.847081,0.5608 1.473922,0.5608 0.626857,0 0.979612,-0.16606 0.783913,-0.36898 z m 12.013952,-12.74104 c 1.706685,0.26112 2.268444,0.18429 1.995919,-0.273 -0.39713,-0.66637 -5.554405,-0.88354 -7.030656,-0.29604 -1.616217,0.64315 -0.854594,1.26343 0.902096,0.73465 0.966596,-0.29098 2.826289,-0.36548 4.132641,-0.16561 z m 2.083153,-3.81703 c -3.483729,-0.33646 -5.595608,-0.31592 -6.218664,0.0604 -0.674679,0.40756 0.828122,0.55273 5.275215,0.5095 l 6.218656,-0.0604 z m -10.475466,-9.56971 c -0.429136,-2.90589 -1.683646,-5.62361 -2.387606,-5.17246 -0.836856,0.53637 -0.600539,2.30197 0.67154,5.01725 1.492564,3.18588 2.172731,3.2474 1.716066,0.1552 z m 17.242945,1.18385 c 1.677824,-0.9312 0.459721,-1.60444 -2.902919,-1.60444 -2.05084,0 -3.874448,0.35733 -4.970048,0.97387 l -1.730599,0.97385 2.433394,0.3602 c 2.720443,0.4027 5.704563,0.10997 7.170172,-0.70348 z m 4.969737,-0.52255 c 0.319352,-0.32397 -0.01371,-0.5211 -0.880113,-0.5211 -0.766587,0 -1.727797,0.42038 -2.135965,0.9342 -0.672243,0.84614 -0.589292,0.89524 0.880103,0.52105 0.892243,-0.22716 1.853421,-0.64756 2.135975,-0.93415 z m -25.138163,-6.38406 c 0.527038,-0.65858 0.357244,-1.21818 -0.880113,-2.9008 -1.75143,-2.38164 -2.324578,-1.58253 -1.261304,1.75856 0.680814,2.13927 1.145236,2.38697 2.141417,1.14224 z m 5.968455,-3.15347 c 0,-0.33262 -1.008304,-1.64 -2.240683,-2.90528 -2.661204,-2.73231 -2.590065,-1.7879 0.09488,1.25936 2.166263,2.45859 2.145833,2.44292 2.145833,1.64592 z m 30.900052,-1.39932 c 2.463552,-1.32113 1.516999,-1.54733 -1.214984,-0.29038 -1.307361,0.60154 -1.939092,1.1115 -1.403844,1.13328 0.53525,0.0217 1.713714,-0.3575 2.618828,-0.8429 z m -3.051254,-4.69312 c 1.541092,-0.33054 -0.198895,-0.48249 -6.051563,-0.52841 -4.962555,-0.0389 -8.34689,0.15756 -8.548781,0.49628 -0.409719,0.68748 11.423782,0.71354 14.600344,0.0322 z m -25.429081,-7.12768 c -0.743538,-1.74356 -1.501589,-4.1409 -1.684549,-5.3274 -0.345181,-2.23858 -1.275926,-2.99851 -1.275926,-1.04176 0,2.10108 3.166784,9.53925 4.061306,9.53925 0.138109,0 -0.357276,-1.42655 -1.100831,-3.17009 z m 23.840557,1.20192 c 3.991983,0.5732 7.402161,0.8928 7.578199,0.71024 0.17602,-0.18256 -1.099649,-0.50403 -2.834797,-0.71438 -1.735195,-0.21039 -4.128239,-0.60356 -5.317886,-0.87372 -3.327235,-0.75562 -8.749838,-0.60846 -10.832445,0.29392 -2.788801,1.20839 -2.272316,1.3952 1.136774,0.41119 2.772317,-0.80023 3.589697,-0.78648 10.270155,0.17275 z m 15.332687,-4.965 c -0.12386,-0.11211 -2.17201,-0.33894 -4.551351,-0.50402 -2.502198,-0.17363 -3.870078,-0.10439 -3.244517,0.16442 1.03654,0.44529 8.260518,0.75998 7.795868,0.3396 z m -31.485737,-1.89909 c -0.95255,-3.89559 -2.845524,-9.67341 -3.169274,-9.67341 -0.215964,0 -0.180815,0.69397 0.07817,1.54213 2.20757,7.23196 2.840832,9.11264 3.068415,9.11264 0.144556,0 0.154755,-0.44158 0.02268,-0.98136 z m 19.904594,-0.18753 c -3.686565,-1.52222 -7.682784,-2.27736 -9.835634,-1.85852 -2.659801,0.51746 -2.167594,1.0885 0.777682,0.90222 1.412884,-0.0894 4.272276,0.31806 6.354187,0.90541 4.994801,1.40903 6.04061,1.42875 2.703765,0.0509 z m 27.792373,-3.25727 c 2.17036,-1.1991 1.75237,-1.59581 -2.16854,-2.05809 -2.58545,-0.30488 -2.99005,-0.20949 -3.60643,0.85014 -0.38186,0.65645 -0.54997,1.4356 -0.37366,1.73149 0.52364,0.87861 4.17324,0.56786 6.14863,-0.52354 z m -8.93634,-1.79044 c 1.15096,-0.3314 1.88097,-0.79805 1.62225,-1.03701 -0.2587,-0.23892 -3.69688,-1.14757 -7.64035,-2.0192 -6.883372,-1.52142 -7.24555,-1.5474 -9.060933,-0.64963 -1.47938,0.73158 -2.75067,0.85975 -5.840732,0.58888 -3.303895,-0.28963 -4.364489,-0.15598 -6.48575,0.8171 -1.394785,0.63981 -2.535958,1.31016 -2.535958,1.48962 0,0.17948 0.790854,-0.11735 1.757432,-0.65944 1.303766,-0.73128 3.083611,-0.99725 6.894615,-1.03029 2.825445,-0.0245 5.751742,-0.3167 6.502943,-0.64929 1.515192,-0.67088 4.593296,0.295 8.097403,2.54085 2.11606,1.35625 3.61764,1.49282 6.68908,0.60841 z m 26.25208,-2.51359 c 1.57042,-0.48364 2.76097,-0.9771 2.6457,-1.09666 -0.27935,-0.28967 -13.50688,1.32257 -13.86063,1.6894 -0.66833,0.69311 8.63659,0.20131 11.21493,-0.59274 z m -12.3925,-2.41368 c 0,-0.77893 -0.52339,-1.13763 -2.02785,-1.38988 -1.1153,-0.18697 -2.94294,-0.98722 -4.06142,-1.77829 -1.61793,-1.14429 -2.4166,-1.36377 -3.90731,-1.07377 -1.64566,0.32014 -8.86293,-0.37801 -12.71399,-1.22987 -0.742929,-0.16434 -1.210892,-0.15375 -1.039978,0.0235 0.477973,0.49563 14.923878,4.82044 18.883748,5.65339 4.75273,0.99976 4.8668,0.99494 4.8668,-0.20512 z m -56.710401,-3.6745 c -0.695069,-1.8989 -1.08631,-2.42583 -1.324101,-1.78322 -0.547043,1.47837 0.211823,4.36937 1.058505,4.03245 0.405685,-0.16146 0.737608,-0.006 0.737608,0.3431 0,0.35018 0.115731,0.51659 0.257285,0.36983 0.141481,-0.14678 -0.18667,-1.47972 -0.729297,-2.96216 z m 59.197251,0.45465 c 1.84501,-0.90793 2.7009,-2.42044 0.89286,-1.57778 -0.52049,0.24255 -2.52805,0.5987 -4.46124,0.79141 -3.17447,0.31646 -3.38397,0.41189 -2.16301,0.98536 1.92015,0.90189 3.61377,0.84309 5.73139,-0.19899 z M 81.346822,133.90881 c -0.192218,-1.50277 -0.835605,-4.08935 -1.429759,-5.74796 l -1.08021,-3.01566 0.281541,2.76432 c 0.280929,2.75848 1.879408,8.7316 2.336662,8.7316 0.132755,0 0.08407,-1.22951 -0.108244,-2.7323 z m -9.020621,-1.92718 c 0.02088,-0.24955 -0.205329,-0.29771 -0.502742,-0.10718 -0.297425,0.19061 -0.523659,0.89947 -0.502754,1.57523 0.0366,1.18457 0.05474,1.18842 0.502754,0.10717 0.255594,-0.61688 0.481838,-1.32572 0.502742,-1.57525 z m 24.854867,-3.53436 c 0.414359,-0.13436 0.620565,-0.38195 0.458237,-0.55027 -0.405331,-0.42034 -4.726465,0.96345 -4.726465,1.51361 0,0.24357 0.790872,0.18141 1.757453,-0.13817 0.966608,-0.31955 2.096462,-0.69088 2.510775,-0.8252 z m 8.632342,-3.28901 c -0.14177,-0.14707 -2.02035,-0.52654 -4.17464,-0.84337 -3.201686,-0.47091 -4.183125,-0.4256 -5.375078,0.24808 -1.385099,0.78286 -1.295569,0.80892 1.786299,0.51987 1.784489,-0.16741 4.217919,-0.0738 5.407539,0.20794 2.06895,0.48998 2.91052,0.44266 2.35588,-0.13246 z m -16.375045,-6.15549 c -0.197903,-1.09388 -0.592122,-1.98888 -0.876047,-1.98888 -0.668425,0 -0.650886,0.55369 0.08722,2.74885 0.771848,2.29616 1.257291,1.8286 0.788997,-0.75997 z m 29.536925,-5.55314 c -2.4855,-3.41391 -6.66577,-5.96896 -9.76575,-5.96896 -2.48484,0 -1.82925,0.57506 1.35993,1.19293 3.1999,0.61994 5.2834,2.10569 7.93826,5.66076 1.13961,1.52605 2.20793,2.63379 2.37396,2.4616 0.16608,-0.1722 -0.69183,-1.67805 -1.9064,-3.34633 z m -25.887496,-4.58232 c -0.212213,-4.3418 -0.520098,-6.78748 -0.771529,-6.12842 -0.408975,1.07199 -0.137477,9.88292 0.385625,12.51864 0.57592,2.90149 0.721864,0.48454 0.385904,-6.39022 z m 17.801106,6.72074 c -1.80194,-1.30886 -4.81337,-2.50437 -6.19729,-2.46027 -0.77875,0.0248 -0.23647,0.39574 1.46971,1.00529 1.48708,0.53125 3.19044,1.26295 3.78527,1.62594 1.59085,0.97085 2.32971,0.8368 0.94231,-0.17096 z m -9.52879,-14.07221 c 0.10986,-2.271032 -0.0111,-4.129152 -0.26785,-4.129152 -0.61166,0 -1.140387,3.419472 -1.127218,7.290102 0.0157,4.63064 1.141938,2.07895 1.395068,-3.16095 z m 24.85019,-2.377865 c -0.80579,-1.352099 -12.23503,-2.506322 -12.94935,-1.30772 -0.1453,0.243986 0.50946,0.361123 1.45518,0.260316 0.94573,-0.100803 3.54454,0.170941 5.77517,0.603902 5.06978,0.984044 6.08823,1.063035 5.719,0.443502 z m 11.31475,-1.751287 c -0.18384,-0.308447 -0.80772,-0.560796 -1.38643,-0.560796 -0.57872,0 -3.74678,-1.028245 -7.04016,-2.284976 -4.98412,-1.901909 -6.36619,-2.218975 -8.24388,-1.891193 -4.22422,0.737385 -4.59997,1.407081 -0.60531,1.078823 3.55164,-0.291863 4.18323,-0.158364 9.19282,1.942917 5.13107,2.152209 8.80845,2.932554 8.08296,1.715225 z m 12.7077,-2.666339 c 0,-0.52895 -7.40438,-0.4968 -7.91661,0.03434 -0.20623,0.213872 1.49066,0.388854 3.77082,0.388854 2.28019,0 4.14579,-0.190452 4.14579,-0.423213 z M 112.10959,92.90045 c 0.18383,-0.30843 0.0851,-0.56078 -0.21924,-0.56078 -0.30889,0 -0.11418,-1.062924 0.44092,-2.405656 1.16074,-2.808154 2.01486,-6.555177 1.30515,-5.725621 -0.26384,0.308431 -1.05372,2.378642 -1.75523,4.60048 -0.7681,2.432735 -1.62169,4.135685 -2.14578,4.280965 -0.47867,0.132765 -0.2155,0.270557 0.58482,0.306332 0.80034,0.03576 1.60557,-0.187289 1.78936,-0.49572 z m 30.24028,-0.752376 c -0.21824,-0.589735 -6.3072,-2.906224 -9.42123,-3.584208 -1.77839,-0.387182 3.15731,2.128916 5.81311,2.963371 1.5614,0.490597 2.83893,1.141375 2.83893,1.446102 0,0.304742 0.23273,0.404927 0.51715,0.222632 0.28443,-0.182294 0.39782,-0.653844 0.25204,-1.047897 z M 114.00225,81.965283 c 0,-0.771069 -0.24334,-1.401938 -0.54076,-1.401938 -0.29742,0 -0.54076,0.630869 -0.54076,1.401938 0,0.771062 0.24334,1.401961 0.54076,1.401961 0.29742,0 0.54076,-0.630899 0.54076,-1.401961 z m 25.98147,0.592359 c -0.91384,-1.141866 -9.75885,-4.038659 -9.75885,-3.19607 0,0.206569 1.25055,0.68364 2.77901,1.060156 1.52843,0.376515 3.65766,1.160346 4.73158,1.741862 2.4395,1.320934 3.07983,1.433173 2.24826,0.394052 z M 122.93213,67.205848 c -0.44192,-0.458282 -1.85253,3.56323 -2.15814,6.152701 -0.24443,2.07124 -0.0839,1.812296 1.067,-1.720559 0.74512,-2.287317 1.23614,-4.28178 1.09114,-4.432142 z m 2.65305,-2.290193 c -0.36036,-0.383 -1.73161,3.464167 -2.07949,5.834079 -0.24446,1.665781 0.007,1.232787 0.98162,-1.682343 0.72095,-2.15899 1.21501,-4.027272 1.09787,-4.151736 z m 8.66822,-5.942267 c 0.21927,-1.542143 0.21665,-2.617718 -0.006,-2.390167 -0.4309,0.440751 -1.84278,7.426803 -1.78638,8.839121 0.0529,1.324779 1.3511,-3.34668 1.79219,-6.448954 z m 2.65381,-3.657113 0.33352,-1.950668 -0.7308,1.682341 c -0.40196,0.925278 -0.86759,2.817911 -1.03476,4.205829 l -0.30397,2.523501 0.70124,-2.255175 c 0.38569,-1.240337 0.85133,-3.132955 1.03477,-4.205828 z m 20.62572,1.694392 c 0.19681,-0.330223 -0.40148,-0.563928 -1.45516,-0.568442 -0.98415,-0.0048 -2.39772,-0.134005 -3.14124,-0.288307 -0.85528,-0.17756 -0.65659,0.01591 0.54073,0.525764 2.28749,0.974682 3.60784,1.082442 4.05567,0.330985 z m -12.16695,-1.682326 c 0.31833,-0.616863 0.45712,-1.121565 0.3084,-1.121565 -0.14868,0 -0.53083,0.504702 -0.84917,1.121565 -0.31836,0.616845 -0.45715,1.121546 -0.30841,1.121546 0.14867,0 0.53083,-0.504701 0.84918,-1.121546 z m 13.39331,-0.400695 c -0.81256,-0.127964 -2.2726,-0.130509 -3.2445,-0.0064 -0.97194,0.124779 -0.30712,0.22949 1.47738,0.232637 1.78451,0.0032 2.5797,-0.09903 1.76712,-0.226917 z"
       id="path246"
       inkscape:highlight-color="#f6d171" />
  </g>
</svg>
